<?xml version="1.0" encoding="UTF-8"?>
<svg width="499" height="494" viewBox="0 0 499 494" fill="none" xmlns="http://www.w3.org/2000/svg">
<path d="M28.3855 243.72V270.358H24.1389V273.252H28.3855V291.077H107.719V274.848H101.839V271.312H107.719V266.013H110.332V263.607H107.234V243.709H28.3855V243.72Z" fill="#EFF4FC"/>
<path d="M86.6435 243.797V290.789H107.719V274.56H101.839V271.323L107.719 271.433V266.135H110.377L110.321 263.396L107.223 263.319V243.72L86.6435 243.797Z" fill="#C1CAC9"/>
<path d="M88.1529 272.864C88.1529 273.031 73.8024 273.164 56.0953 273.164C38.3881 273.164 24.0376 273.031 24.0376 272.864C24.0376 272.698 38.3881 272.564 56.0953 272.564C73.8024 272.564 88.1529 272.698 88.1529 272.864Z" fill="#C1CAC9"/>
<path d="M88.1529 270.159C88.1529 270.325 73.8024 270.459 56.0953 270.459C38.3881 270.459 24.0376 270.325 24.0376 270.159C24.0376 269.993 38.3881 269.859 56.0953 269.859C73.8024 269.859 88.1529 269.993 88.1529 270.159Z" fill="#C1CAC9"/>
<path d="M92.2643 262.876C92.2643 263.042 77.9138 263.175 60.2067 263.175C42.4995 263.175 28.149 263.042 28.149 262.876C28.149 262.709 42.4995 262.576 60.2067 262.576C77.9138 262.576 92.2643 262.709 92.2643 262.876Z" fill="#C1CAC9"/>
<path d="M92.6585 282.73C92.6585 282.897 78.3081 283.03 60.6009 283.03C42.8937 283.03 28.5432 282.897 28.5432 282.73C28.5432 282.564 42.8937 282.431 60.6009 282.431C78.3081 282.431 92.6585 282.564 92.6585 282.73Z" fill="#C1CAC9"/>
<path d="M272.501 70.9863H157.562V172.186H272.501V70.9863Z" fill="#C1CAC9"/>
<path d="M272.501 172.198C272.501 172.198 272.479 171.544 272.468 170.324C272.468 169.083 272.456 167.265 272.434 164.903C272.422 160.148 272.4 153.208 272.366 144.362C272.332 126.681 272.287 101.417 272.231 70.9982L272.49 71.2532C239.385 71.2643 199.882 71.2865 157.551 71.2975L157.855 70.9982C157.844 107.813 157.833 142.466 157.821 172.198L157.551 171.932C191.839 171.987 220.54 172.031 240.691 172.065C250.773 172.098 258.703 172.12 264.143 172.131C266.847 172.142 268.931 172.153 270.35 172.164C271.048 172.164 271.578 172.175 271.949 172.175C272.31 172.175 272.501 172.187 272.501 172.187C272.501 172.187 272.332 172.187 271.983 172.198C271.611 172.198 271.093 172.198 270.406 172.209C268.998 172.209 266.937 172.231 264.256 172.242C258.838 172.253 250.919 172.286 240.872 172.308C220.686 172.342 191.929 172.386 157.562 172.441H157.292V172.175C157.292 142.433 157.269 107.791 157.258 70.9761V70.6768H157.574C199.904 70.6989 239.407 70.71 272.513 70.7211H272.772V70.9761C272.715 101.45 272.67 126.78 272.636 144.495C272.603 153.319 272.58 160.247 272.569 164.981C272.558 167.32 272.546 169.127 272.535 170.357C272.535 171.566 272.501 172.175 272.501 172.175V172.198Z" fill="#535E6B"/>
<path d="M201.628 88.9788C201.628 89.1453 195.579 89.2785 188.111 89.2785C180.643 89.2785 174.594 89.1453 174.594 88.9788C174.594 88.8124 180.643 88.6792 188.111 88.6792C195.579 88.6792 201.628 88.8124 201.628 88.9788Z" fill="#EEFBFF"/>
<path d="M250.334 96.5716C250.334 96.7381 233.708 96.8712 213.218 96.8712C192.729 96.8712 176.092 96.7381 176.092 96.5716C176.092 96.4051 192.706 96.272 213.218 96.272C233.73 96.272 250.334 96.4051 250.334 96.5716Z" fill="#EEFBFF"/>
<path d="M179.652 109.443H174.808V114.21H179.652V109.443Z" fill="#EEFBFF"/>
<path d="M191.57 109.443H186.725V114.21H191.57V109.443Z" fill="#EEFBFF"/>
<path d="M203.712 109.231H198.868V113.998H203.712V109.231Z" fill="#EEFBFF"/>
<path d="M215.404 109.443H210.56V114.21H215.404V109.443Z" fill="#EEFBFF"/>
<path d="M227.333 109.443H222.489V114.21H227.333V109.443Z" fill="#EEFBFF"/>
<path d="M239.25 109.443H234.406V114.21H239.25V109.443Z" fill="#EEFBFF"/>
<path d="M251.168 109.443H246.324V114.21H251.168V109.443Z" fill="#EEFBFF"/>
<path d="M179.652 119.574H174.808V124.341H179.652V119.574Z" fill="#EEFBFF"/>
<path d="M191.57 119.574H186.725V124.341H191.57V119.574Z" fill="#EEFBFF"/>
<path d="M203.487 119.574H198.643V124.341H203.487V119.574Z" fill="#EEFBFF"/>
<path d="M215.404 119.574H210.56V124.341H215.404V119.574Z" fill="#EEFBFF"/>
<path d="M227.333 119.574H222.489V124.341H227.333V119.574Z" fill="#EEFBFF"/>
<path d="M239.465 119.363H234.62V124.13H239.465V119.363Z" fill="#EEFBFF"/>
<path d="M251.168 119.574H246.324V124.341H251.168V119.574Z" fill="#EEFBFF"/>
<path d="M179.652 129.706H174.808V134.473H179.652V129.706Z" fill="#EEFBFF"/>
<path d="M191.795 129.496H186.95V134.262H191.795V129.496Z" fill="#EEFBFF"/>
<path d="M203.487 129.706H198.643V134.473H203.487V129.706Z" fill="#EEFBFF"/>
<path d="M215.404 129.706H210.56V134.473H215.404V129.706Z" fill="#EEFBFF"/>
<path d="M227.333 129.706H222.489V134.473H227.333V129.706Z" fill="#EEFBFF"/>
<path d="M239.25 129.706H234.406V134.473H239.25V129.706Z" fill="#EEFBFF"/>
<path d="M251.168 129.706H246.324V134.473H251.168V129.706Z" fill="#EEFBFF"/>
<path d="M179.652 139.838H174.808V144.605H179.652V139.838Z" fill="#EEFBFF"/>
<path d="M191.57 139.838H186.725V144.605H191.57V139.838Z" fill="#EEFBFF"/>
<path d="M203.487 139.838H198.643V144.605H203.487V139.838Z" fill="#EEFBFF"/>
<path d="M215.63 139.628H210.785V144.395H215.63V139.628Z" fill="#EEFBFF"/>
<path d="M227.333 139.838H222.489V144.605H227.333V139.838Z" fill="#EEFBFF"/>
<path d="M239.25 139.838H234.406V144.605H239.25V139.838Z" fill="#EEFBFF"/>
<path d="M251.168 139.838H246.324V144.605H251.168V139.838Z" fill="#EEFBFF"/>
<path d="M179.652 149.97H174.808V154.737H179.652V149.97Z" fill="#EEFBFF"/>
<path d="M191.57 149.97H186.725V154.737H191.57V149.97Z" fill="#EEFBFF"/>
<path d="M203.487 149.97H198.643V154.737H203.487V149.97Z" fill="#EEFBFF"/>
<path d="M215.404 149.97H210.56V154.737H215.404V149.97Z" fill="#EEFBFF"/>
<path d="M227.333 149.97H222.489V154.737H227.333V149.97Z" fill="#EEFBFF"/>
<path d="M239.465 149.759H234.62V154.526H239.465V149.759Z" fill="#EEFBFF"/>
<path d="M251.168 149.97H246.324V154.737H251.168V149.97Z" fill="#EEFBFF"/>
<path d="M409.394 243.885C417.313 234.629 421.841 232.079 427.563 225.794C432.395 220.495 437.306 215.063 440.134 208.523C442.961 201.971 443.389 193.978 439.402 188.048C439.402 188.048 426.718 185.498 417.29 184.999C407.862 184.5 403.48 184.567 403.48 184.567L398.254 200.12L407.693 203.911L388.353 221.127L373.09 238.598L380.682 260.236L390.955 261.168L409.383 243.885H409.394Z" fill="#FFBE9D"/>
<path d="M422.9 189.555C422.956 189.622 421.976 190.575 420.399 192.105C418.687 193.757 416.558 195.819 414.204 198.102C411.771 200.442 409.54 202.526 407.873 203.978C406.218 205.441 405.136 206.295 405.08 206.228C405.023 206.162 406.003 205.208 407.58 203.679C409.293 202.027 411.422 199.965 413.776 197.681C416.209 195.342 418.439 193.258 420.095 191.806C421.751 190.342 422.832 189.489 422.888 189.555H422.9Z" fill="#EB996E"/>
<path d="M436.869 193.658C436.801 193.724 436.351 193.226 435.449 192.705C434.559 192.184 433.162 191.685 431.585 191.818C430.019 191.951 428.723 192.693 427.946 193.359C427.146 194.024 426.797 194.589 426.718 194.534C426.662 194.512 426.887 193.846 427.664 193.059C428.419 192.272 429.805 191.396 431.54 191.241C433.275 191.097 434.796 191.718 435.675 192.361C436.576 193.015 436.925 193.614 436.869 193.658Z" fill="#EB996E"/>
<path d="M402.489 191.873C405.857 190.92 407.84 186.763 406.432 183.603C405.778 182.129 404.562 180.976 403.627 179.657C403.098 178.903 402.669 178.083 402.298 177.229L400.743 172.518C399.696 168.571 398.817 164.592 395.708 162.097C392.881 159.836 388.961 159.503 385.706 157.896C383.329 156.732 381.347 154.914 379.015 153.661C376.683 152.409 373.698 151.799 371.434 153.174C370.105 153.983 369.226 155.357 367.886 156.156C365.137 157.796 361.195 156.577 358.672 158.539C356.622 160.135 356.43 163.128 354.955 165.257C353.344 167.562 352.375 169.735 349.83 170.977C347.284 172.218 345.808 174.635 345.774 177.429C345.752 179.89 345.414 181.009 345.346 183.47C345.29 185.266 344.344 187.073 343.623 188.725C342.902 190.376 341.528 196.773 343.015 197.815L360.001 205.353C365.374 210.541 370.927 215.851 377.888 218.655L379.229 220.44C377.629 220.629 396.226 218.8 399.335 207.803C399.763 206.273 400.236 204.765 401.273 203.546C402.309 202.327 403.503 201.207 404.213 199.766C405.497 197.161 404.753 193.746 402.512 191.884L402.489 191.873Z" fill="#263238"/>
<path d="M384.557 210.398C388.049 206.352 391.541 202.261 394.278 197.683C397.015 193.104 398.987 187.972 399.167 182.662C399.19 181.852 398.908 176.265 398.119 176.032C397.556 175.866 397.117 180.799 396.655 181.143C392.228 184.48 389.31 189.479 387.609 194.712C385.908 199.944 385.075 204.933 384.557 210.398Z" fill="#263238"/>
<path d="M350.967 244.54C358.773 247.511 374.509 234.419 374.509 234.419L392.881 191.851C398.434 179.701 395.877 166.388 383.374 161.266L382.191 160.856C370.285 156.754 357.174 162.341 352.071 173.682C347.317 184.235 342.204 195.964 340.21 201.817C336.076 213.933 347.667 220.03 347.667 220.03C347.689 220.03 346.585 222.802 345.177 226.282C342.001 234.109 347.757 243.531 350.967 244.529V244.54Z" fill="#FFBE9D"/>
<path d="M347.667 220.053C347.667 220.053 355.236 223.157 365.284 220.906C365.284 220.906 358.277 228.345 346.428 223.046L347.667 220.053Z" fill="#EB996E"/>
<path d="M350.595 184.391C350.731 184.691 352.398 184.181 354.291 184.835C356.183 185.456 357.22 186.897 357.513 186.73C357.648 186.664 357.569 186.187 357.118 185.544C356.679 184.912 355.811 184.148 354.64 183.748C353.468 183.349 352.33 183.438 351.598 183.671C350.866 183.915 350.528 184.247 350.595 184.38V184.391Z" fill="#263238"/>
<path d="M369.102 189.977C369.237 190.277 370.916 189.767 372.798 190.421C374.69 191.042 375.727 192.483 376.02 192.316C376.155 192.25 376.076 191.773 375.625 191.13C375.186 190.498 374.318 189.733 373.147 189.334C371.975 188.935 370.837 189.024 370.105 189.257C369.373 189.501 369.035 189.833 369.102 189.966V189.977Z" fill="#263238"/>
<path d="M359.28 198.636C359.325 198.537 358.221 197.927 356.408 197.04C355.946 196.829 355.518 196.574 355.552 196.22C355.552 195.843 355.946 195.399 356.374 194.923C357.23 193.936 358.131 192.894 359.077 191.808C362.874 187.351 365.814 183.626 365.622 183.471C365.442 183.327 362.209 186.808 358.413 191.264C357.489 192.362 356.599 193.415 355.766 194.424C355.394 194.901 354.864 195.399 354.853 196.198C354.853 196.597 355.124 196.974 355.394 197.162C355.664 197.362 355.935 197.461 356.171 197.55C358.041 198.304 359.224 198.725 359.269 198.625L359.28 198.636Z" fill="#263238"/>
<path d="M364.373 201.817C364.068 201.695 363.347 203.702 361.094 204.533C358.841 205.365 356.734 204.389 356.622 204.666C356.543 204.777 356.971 205.221 357.883 205.564C358.773 205.908 360.193 206.074 361.579 205.564C362.953 205.054 363.832 204.046 364.192 203.247C364.564 202.427 364.519 201.851 364.373 201.817Z" fill="#263238"/>
<path d="M373.878 179.224C373.878 179.79 375.85 180.2 377.968 181.22C380.108 182.206 381.663 183.448 382.114 183.104C382.316 182.938 382.181 182.351 381.629 181.619C381.088 180.887 380.108 180.034 378.835 179.424C377.562 178.825 376.267 178.615 375.354 178.659C374.43 178.703 373.878 178.958 373.878 179.224Z" fill="#263238"/>
<path d="M355.889 173.705C356.07 174.237 357.523 174.248 359.089 174.769C360.678 175.235 361.872 176.044 362.334 175.711C362.548 175.545 362.48 175.046 362.052 174.448C361.624 173.849 360.79 173.206 359.709 172.862C358.627 172.53 357.557 172.585 356.858 172.829C356.149 173.073 355.822 173.439 355.889 173.694V173.705Z" fill="#263238"/>
<path d="M388.702 200.443C388.939 200.421 397.996 200.886 394.796 209.045C391.597 217.204 383.937 212.36 384.016 212.116C384.095 211.872 388.702 200.432 388.702 200.432V200.443Z" fill="#FFBE9D"/>
<path d="M387.756 209.999C387.756 209.999 387.857 210.154 388.06 210.353C388.251 210.553 388.634 210.786 389.13 210.786C390.133 210.797 391.406 209.71 392.025 208.258C392.341 207.526 392.454 206.762 392.42 206.074C392.397 205.376 392.172 204.81 391.766 204.567C391.372 204.301 390.955 204.445 390.764 204.633C390.561 204.822 390.55 204.999 390.505 204.999C390.471 205.01 390.381 204.799 390.583 204.478C390.685 204.334 390.854 204.179 391.113 204.09C391.372 204.001 391.699 204.034 391.992 204.19C392.611 204.478 392.961 205.276 393.006 206.03C393.084 206.806 392.961 207.671 392.611 208.491C391.913 210.109 390.459 211.329 389.119 211.218C388.477 211.151 388.06 210.786 387.88 210.497C387.699 210.198 387.733 209.999 387.767 209.999H387.756Z" fill="#EB996E"/>
<path d="M362.839 162.308C361.792 161.056 367.525 158.362 371.4 158.184C377.257 157.907 385.39 159.492 389.457 162.563C394.345 166.255 397.837 170.733 398.625 176.753C399.403 182.772 398.13 188.924 395.697 194.5C394.953 196.197 394.052 197.926 392.532 199.012C390.65 200.365 387.981 200.631 387.08 203.147C386.753 204.067 386.122 204.876 385.221 205.298C383.07 206.295 381.819 204.078 381.572 202.26C381.042 198.369 382.371 194.489 383.678 190.776C384.613 188.137 385.57 185.444 387.316 183.249C388.263 182.051 389.434 181.021 390.313 179.779C391.191 178.526 391.777 176.952 391.36 175.489C391.293 175.256 391.146 174.935 390.955 174.558C389.423 171.631 386.393 169.747 383.059 169.625C377.753 169.425 368.843 168.749 367.39 166.388C365.306 162.984 365.182 161.255 365.182 161.255L362.851 162.319L362.839 162.308Z" fill="#263238"/>
<path d="M389.468 161.289C385.525 158.03 380.333 156.09 375.207 156.599C372.493 156.877 369.711 157.919 368.055 160.058C366.399 162.198 366.252 165.568 368.224 167.43L368.348 167.597C371.4 170.135 373.878 170.568 377.877 170.745C381.234 170.889 384.59 170.124 387.958 170.279C391.529 170.457 395.043 171.709 397.893 173.827C396.159 169.06 393.41 164.559 389.479 161.3L389.468 161.289Z" fill="#263238"/>
<path d="M401.375 178.803C401.375 178.803 400.913 179.69 399.787 180.854C398.671 182.018 396.891 183.437 394.65 184.513C392.408 185.588 390.178 186.098 388.556 186.253C386.933 186.408 385.931 186.286 385.931 186.231C385.897 186.031 389.997 186.142 394.379 183.992C398.795 181.907 401.228 178.659 401.364 178.803H401.375Z" fill="#455A64"/>
<path d="M404.167 181.464C404.167 181.464 404.089 181.818 403.818 182.395C403.548 182.971 403.086 183.792 402.422 184.734C401.104 186.618 398.772 188.969 395.55 190.543C392.329 192.128 389.028 192.549 386.708 192.461C385.537 192.427 384.602 192.294 383.971 192.161C383.34 192.028 382.991 191.917 383.002 191.873C383.025 191.773 384.421 192.073 386.719 192.05C388.995 192.028 392.182 191.552 395.303 190.022C398.411 188.492 400.721 186.264 402.095 184.49C403.492 182.705 404.089 181.419 404.179 181.464H404.167Z" fill="#455A64"/>
<path d="M294.815 271.633L254.929 230.639L246.357 243.931L256.934 263.829C256.934 263.829 268.469 282.397 274.394 288.949C280.33 295.5 280.758 294.081 280.758 294.081L294.804 271.644L294.815 271.633Z" fill="#FFBE9D"/>
<path d="M240.196 218.789C240.072 218.7 233.077 217.691 230.295 217.292C229.574 217.192 228.842 217.347 228.233 217.747L224.043 220.485L220.607 227.657L221.633 228.322L220.585 234.796C220.585 234.796 222.241 236.581 223.919 234.553C225.586 232.535 226.96 229.686 226.96 229.686L231.5 229.608L231.297 230.019L226.645 231.183L225.102 235.085L226.487 239.109L229.619 241.925L230.97 241.869L233.516 243.377C233.516 243.377 236.096 241.149 233.91 238.998C233.91 238.998 236.017 241.038 237.177 240.24L246.639 244.474L254.084 237.402L256.112 231.77C256.112 231.77 244.251 220.33 243.53 219.786C242.809 219.243 240.185 218.778 240.185 218.778L240.196 218.789Z" fill="#FFBE9D"/>
<path d="M233.978 238.876C233.888 238.854 234.023 238.31 233.9 237.468C233.787 236.636 233.336 235.461 232.322 234.685L232.153 234.563L231.973 234.43L232.041 234.231C232.424 233.045 232.345 231.881 232.153 231.082C231.973 230.284 231.725 229.819 231.804 229.774C231.86 229.741 232.243 230.14 232.548 230.972C232.852 231.792 233.021 233.078 232.604 234.397L232.491 234.076L232.683 234.22C233.877 235.14 234.305 236.503 234.316 237.424C234.339 238.366 234.046 238.898 233.99 238.876H233.978Z" fill="#FD834D"/>
<path d="M230.61 241.869C230.554 241.803 231.151 241.448 231.422 240.517C231.726 239.596 231.377 238.211 230.43 237.002C230.182 236.659 229.912 236.337 229.653 236.016L229.551 235.894L229.608 235.75C230.025 234.652 229.608 233.566 229.112 233.045C228.605 232.491 228.132 232.324 228.166 232.247C228.166 232.191 228.718 232.224 229.371 232.79C230.025 233.311 230.633 234.597 230.149 235.949L230.103 235.672C230.363 235.983 230.644 236.315 230.915 236.67C231.399 237.313 231.782 238.033 231.94 238.743C232.109 239.452 232.041 240.14 231.827 240.65C231.388 241.703 230.622 241.947 230.622 241.88L230.61 241.869Z" fill="#FD834D"/>
<path d="M231.972 234.474C232.063 234.607 231.646 235.017 231.049 235.383C230.452 235.749 229.9 235.937 229.81 235.804C229.72 235.671 230.137 235.261 230.734 234.895C231.331 234.529 231.882 234.341 231.972 234.474Z" fill="#FD834D"/>
<path d="M233.471 239.53C233.303 239.563 233.055 238.732 232.39 237.956C231.748 237.157 230.982 236.758 231.038 236.603C231.072 236.448 232.086 236.659 232.841 237.59C233.607 238.51 233.618 239.53 233.46 239.53H233.471Z" fill="#FD834D"/>
<path d="M236.377 239.552C236.208 239.485 237.143 237.423 237.47 234.718C237.83 232.013 237.447 229.796 237.627 229.763C237.762 229.719 238.427 231.969 238.055 234.785C237.706 237.6 236.501 239.629 236.377 239.552Z" fill="#FD834D"/>
<path d="M226.747 223.655C226.815 223.689 226.736 224.088 226.511 224.708C226.274 225.329 225.891 226.194 225.181 226.981C224.46 227.779 223.525 228.212 222.816 228.289C222.106 228.378 221.689 228.167 221.712 228.112C221.723 228.023 222.14 228.067 222.737 227.89C223.334 227.724 224.111 227.303 224.742 226.593C225.384 225.884 225.801 225.096 226.128 224.531C226.443 223.966 226.669 223.611 226.747 223.644V223.655Z" fill="#FD834D"/>
<path d="M231.703 228.798C231.601 228.665 231.838 228.333 232.097 227.923C232.356 227.524 232.559 227.158 232.716 227.191C232.874 227.213 232.908 227.723 232.592 228.233C232.277 228.743 231.793 228.932 231.703 228.81V228.798Z" fill="#FD834D"/>
<path d="M202.551 217.281L202.675 234.065C202.72 239.708 225.766 239.53 225.474 233.91C225.462 233.577 225.35 217.126 225.35 217.126L202.551 217.281Z" fill="#FD834D"/>
<path d="M224.798 220.075C226.161 219.875 227.547 219.886 228.899 220.119C229.879 220.285 230.915 220.618 231.501 221.427C231.952 222.048 232.053 222.846 232.121 223.611C232.256 225.085 232.301 226.626 231.681 227.968C231.095 229.22 229.969 230.152 228.696 230.673C227.423 231.194 226.026 231.327 224.651 231.249C224.651 230.396 224.663 229.542 224.674 228.688C225.485 228.699 226.307 228.711 227.096 228.544C227.896 228.378 228.673 228.034 229.214 227.425C230.093 226.438 230.194 224.986 230.093 223.655C230.059 223.134 229.98 222.591 229.665 222.17C229.214 221.593 228.414 221.438 227.682 221.438C226.724 221.438 225.755 221.627 224.865 222.004" fill="#FD834D"/>
<path d="M216.891 183.038C216.891 183.038 216.767 183.182 216.407 183.237C216.057 183.282 215.483 183.126 215.055 182.605C214.841 182.35 214.649 182.007 214.593 181.597C214.525 181.186 214.649 180.676 215.01 180.333C215.697 179.59 217.026 179.446 218.097 180.056C219.212 180.699 219.685 182.162 219.471 183.525C219.291 184.933 218.401 186.197 217.443 187.35C216.486 188.503 215.37 189.656 214.841 191.119C214.3 192.56 214.559 194.323 215.697 195.531C216.812 196.773 218.333 197.604 219.527 198.824C220.124 199.422 220.598 200.198 220.733 201.041C220.902 201.883 220.688 202.726 220.327 203.424C219.595 204.843 218.333 205.73 217.229 206.473C216.114 207.216 215.089 207.914 214.39 208.768C212.959 210.475 212.588 212.359 212.542 213.579C212.509 214.832 212.723 215.508 212.666 215.519C212.644 215.519 212.587 215.364 212.497 215.031C212.43 214.71 212.317 214.211 212.317 213.579C212.295 212.326 212.599 210.353 214.063 208.513C214.784 207.582 215.855 206.839 216.947 206.085C218.04 205.331 219.189 204.466 219.843 203.18C220.158 202.549 220.327 201.828 220.181 201.13C220.057 200.42 219.651 199.766 219.11 199.212C218.006 198.081 216.474 197.25 215.258 195.908C213.984 194.567 213.68 192.527 214.3 190.931C214.908 189.312 216.08 188.148 217.026 187.017C217.984 185.898 218.806 184.723 218.987 183.459C219.201 182.228 218.784 180.943 217.871 180.41C216.97 179.867 215.798 179.967 215.235 180.566C214.615 181.153 214.863 182.029 215.224 182.483C215.584 182.971 216.069 183.149 216.384 183.137C216.711 183.126 216.857 183.016 216.88 183.049L216.891 183.038Z" fill="#535E6B"/>
<path d="M226.476 221.549L235.476 221.127L245.704 223.988L258.466 234.707C258.466 234.707 248.723 241.825 245.569 238.709C242.404 235.605 238.731 228.721 238.731 228.721L235.104 227.214C235.104 227.214 223.164 227.191 226.476 221.549Z" fill="#FFBE9D"/>
<path d="M252.564 229.763C252.564 229.763 252.372 229.653 252.046 229.409C251.674 229.109 251.212 228.755 250.649 228.3C249.376 227.269 247.664 225.861 245.569 224.154L245.648 224.198C242.753 223.411 239.261 222.458 235.397 221.405H235.487C232.694 221.549 229.653 221.693 226.487 221.848L226.724 221.704L226.656 221.837C226.116 222.757 225.98 223.855 226.623 224.62C227.242 225.385 228.256 225.806 229.225 226.127C231.196 226.726 233.235 226.914 235.093 226.97H235.149L235.195 226.992C236.467 227.524 237.673 228.034 238.81 228.522L238.889 228.555L238.934 228.633C240.669 231.859 242.291 234.419 243.519 236.127C244.127 236.991 244.656 237.623 245.006 238.067C245.377 238.488 245.569 238.721 245.546 238.743C245.524 238.765 245.31 238.566 244.893 238.166C244.499 237.756 243.935 237.135 243.293 236.293C241.987 234.619 240.297 232.08 238.506 228.854L238.63 228.965C237.481 228.5 236.265 228.001 234.992 227.48L235.093 227.502C233.167 227.469 231.128 227.291 229.056 226.671C228.042 226.338 226.949 225.917 226.172 224.974C225.789 224.509 225.575 223.877 225.609 223.267C225.643 222.658 225.845 222.081 226.138 221.571L226.217 221.427L226.285 221.294H226.454C229.619 221.139 232.66 221.006 235.454 220.884H235.544C239.396 221.992 242.865 222.99 245.76 223.822H245.805L245.839 223.866C247.889 225.64 249.568 227.092 250.795 228.156C251.325 228.633 251.764 229.032 252.124 229.342C252.429 229.619 252.575 229.775 252.564 229.786V229.763Z" fill="#EB996E"/>
<path d="M225.26 234.619C225.26 234.619 225.012 234.83 224.494 235.129C224.234 235.284 223.919 235.439 223.525 235.606C223.142 235.783 222.703 235.971 222.196 236.138C220.202 236.88 217.285 237.479 214.029 237.446C210.774 237.413 207.868 236.758 205.874 236.06C204.871 235.705 204.083 235.373 203.565 235.096C203.035 234.83 202.754 234.663 202.776 234.619C202.821 234.53 204.004 235.073 206.009 235.672C208.003 236.26 210.853 236.847 214.04 236.869C217.228 236.903 220.089 236.382 222.072 235.761C224.066 235.151 225.214 234.53 225.26 234.619Z" fill="#FD834D"/>
<path d="M225.417 234.475C225.26 234.475 225.113 230.595 225.091 225.806C225.068 221.017 225.192 217.137 225.35 217.137C225.507 217.137 225.654 221.017 225.676 225.806C225.699 230.595 225.575 234.475 225.417 234.475Z" fill="#FD834D"/>
<path d="M214.119 216.085C214.119 216.085 214.041 215.996 213.928 215.807C213.827 215.608 213.703 215.309 213.635 214.887C213.466 214.056 213.601 212.781 214.311 211.44C214.998 210.076 216.361 208.823 217.882 207.593C219.381 206.362 221.104 204.988 221.882 202.948C222.276 201.95 222.344 200.875 221.994 199.944C221.668 199.001 220.992 198.236 220.316 197.571C218.93 196.263 217.443 195.121 216.801 193.691C216.125 192.272 216.451 190.898 216.947 190.21C217.195 189.856 217.465 189.645 217.668 189.534C217.871 189.423 217.984 189.401 217.995 189.412C218.029 189.468 217.556 189.634 217.15 190.321C216.756 190.986 216.53 192.25 217.184 193.503C217.815 194.789 219.245 195.842 220.71 197.172C221.42 197.86 222.163 198.669 222.546 199.744C222.952 200.808 222.862 202.05 222.434 203.136C221.578 205.365 219.741 206.795 218.232 207.992C216.699 209.2 215.381 210.353 214.683 211.617C213.962 212.87 213.781 214.056 213.872 214.843C213.95 215.641 214.187 216.051 214.131 216.073L214.119 216.085Z" fill="#535E6B"/>
<path d="M65.9062 227.524L43.9638 211.195C43.9638 211.195 53.4594 183.758 49.6972 180.355L15.995 221.094L49.1227 247.921L65.895 227.535L65.9062 227.524Z" fill="#5C86D7"/>
<g opacity="0.3">
<path d="M65.9062 227.524L43.9638 211.195C43.9638 211.195 53.4594 183.758 49.6972 180.355L15.995 221.094L49.1227 247.921L65.895 227.535L65.9062 227.524Z" fill="black"/>
</g>
<path d="M35.336 225.23C34.4685 225.839 33.1166 225.662 32.4519 224.83C31.7985 223.999 31.9675 222.647 32.8237 222.015C33.6799 221.383 35.3135 221.549 35.8767 222.447C36.44 223.345 36.1471 224.93 35.1557 225.329" fill="#E0E0E0"/>
<g opacity="0.6">
<path d="M16.0062 221.094L19.4531 223.666L50.4744 183.647C50.4744 183.647 51.1728 181.186 49.7084 180.355L16.0062 221.094Z" fill="white"/>
</g>
<path d="M44.7194 210.707C44.5166 210.552 43.5928 211.472 42.1394 211.927C40.6861 212.426 39.4018 212.226 39.323 212.47C39.2103 212.681 40.6636 213.357 42.4211 212.769C44.1786 212.204 44.9334 210.807 44.7194 210.696V210.707Z" fill="#263238"/>
<path d="M46.4653 204.998C46.3075 204.799 45.2485 205.386 43.8403 205.375C42.4208 205.409 41.3618 204.832 41.204 205.043C41.0125 205.209 42.0828 206.295 43.8516 206.273C45.609 206.273 46.668 205.165 46.4765 205.01L46.4653 204.998Z" fill="#263238"/>
<path d="M43.2767 198.403C43.0851 198.547 43.8625 199.633 45.3947 200.01C46.9268 200.398 48.1323 199.811 48.0309 199.589C47.9633 199.345 46.8592 199.467 45.6087 199.146C44.3469 198.846 43.4456 198.226 43.2654 198.403H43.2767Z" fill="#263238"/>
<path d="M49.3036 214.975C49.0557 214.909 48.5713 216.051 47.5686 217.104C46.5885 218.19 45.4731 218.756 45.5633 219C45.6196 219.232 47.0729 218.977 48.2333 217.714C49.4162 216.461 49.5401 215.009 49.3036 214.975Z" fill="#263238"/>
<path d="M76.686 211.693L56.9513 192.837C56.9513 192.837 69.8036 166.753 66.492 162.917L27.9575 199.266L57.4919 229.895L76.686 211.693Z" fill="#5C86D7"/>
<path d="M46.6339 205.719C45.6875 206.217 44.3694 205.885 43.8286 204.976C43.2766 204.067 43.6146 202.748 44.5497 202.227C45.4847 201.706 47.0732 202.071 47.5239 203.025C47.9632 203.989 47.4788 205.519 46.4536 205.796" fill="#E0E0E0"/>
<g opacity="0.6">
<path d="M27.9687 199.278L31.0663 202.249L66.8524 166.276C66.8524 166.276 67.8549 163.926 66.5032 162.917L27.9687 199.267V199.278Z" fill="white"/>
</g>
<path d="M57.7632 192.438C57.5717 192.261 56.5578 193.059 55.0481 193.336C53.5497 193.657 52.288 193.303 52.1866 193.536C52.0514 193.735 53.4033 194.578 55.2284 194.212C57.0535 193.857 57.966 192.56 57.7632 192.438Z" fill="#263238"/>
<path d="M60.2075 186.985C60.0723 186.763 58.9569 187.217 57.5487 187.04C56.1405 186.896 55.1603 186.209 54.9801 186.386C54.7773 186.519 55.7011 187.727 57.4473 187.927C59.1935 188.138 60.3765 187.162 60.2075 186.985Z" fill="#263238"/>
<path d="M57.8637 180.055C57.6496 180.177 58.2918 181.352 59.7676 181.907C61.2322 182.472 62.5165 182.04 62.4377 181.807C62.3926 181.552 61.2885 181.552 60.0943 181.075C58.8776 180.632 58.0665 179.9 57.8637 180.055Z" fill="#263238"/>
<path d="M61.773 197.227C61.5252 197.127 60.9168 198.203 59.7789 199.134C58.6636 200.087 57.4919 200.52 57.5483 200.775C57.5708 201.007 59.0467 200.93 60.3648 199.821C61.6942 198.713 61.9983 197.294 61.7618 197.238L61.773 197.227Z" fill="#263238"/>
<path d="M68.0802 202.126C68.0802 202.126 127.329 248.187 138.447 249.55L151.063 251.568L176.418 262.321L254.681 302.882L279.226 319.743L291.83 343.178L292.901 357.257C292.901 357.257 236.276 364.041 227.94 359.03C219.605 354.02 148.168 301.508 144.462 297.406C140.756 293.305 73.3744 265.502 46.532 219.985L68.0802 202.126Z" fill="#263238"/>
<path d="M37.5545 246.28C37.5545 246.28 80.527 285.556 110.636 296.952C140.745 308.348 164.816 322.936 164.816 322.936L215.313 349.996L280.183 321.152L267.387 298.548L162.045 274.171L55.0927 220.817C55.0927 220.817 38.0276 238.077 37.5657 246.28H37.5545Z" fill="#263238"/>
<path d="M251.099 333.103C255.921 324.434 266.16 318.979 276.173 319.755L251.099 333.103Z" fill="#263238"/>
<path d="M256.867 310.088C258.738 315.565 256.766 322.105 252.17 325.697L256.867 310.088Z" fill="#263238"/>
<path d="M219.594 284.093C219.594 284.093 220.044 284.237 220.799 284.603C221.554 284.958 222.635 285.512 223.964 286.199C226.623 287.585 230.238 289.592 234.147 291.953C238.056 294.314 241.514 296.576 243.981 298.283C245.208 299.136 246.2 299.835 246.864 300.334C247.529 300.833 247.889 301.121 247.867 301.154C247.844 301.187 247.439 300.955 246.729 300.511C245.918 300.001 244.915 299.358 243.744 298.615C241.232 297.008 237.74 294.802 233.832 292.441C229.934 290.091 226.352 288.029 223.75 286.554C222.534 285.856 221.509 285.268 220.675 284.792C219.954 284.37 219.56 284.115 219.582 284.082L219.594 284.093Z" fill="#455A64"/>
<path d="M230.937 357.745C230.937 357.745 230.756 357.645 230.43 357.423C230.081 357.191 229.596 356.869 228.965 356.448C227.67 355.561 225.789 354.286 223.39 352.657C218.535 349.32 211.551 344.531 202.934 338.611C194.306 332.658 184.033 325.575 172.634 317.715C166.934 313.78 160.953 309.645 154.746 305.355C151.649 303.215 148.495 301.031 145.296 298.814C142.119 296.564 138.841 294.391 135.428 292.307C128.614 288.128 121.776 284.326 115.401 280.268C109.014 276.244 102.988 272.165 97.2881 268.218C91.5997 264.25 86.1929 260.514 81.2254 256.856C76.2692 253.187 71.8312 249.539 67.9901 245.981C60.2742 238.886 54.9575 232.246 51.5558 227.524C50.6884 226.349 49.9675 225.273 49.3367 224.353C48.6947 223.433 48.1765 222.635 47.771 221.981C47.3768 221.349 47.0614 220.861 46.8361 220.507C46.6334 220.174 46.532 219.997 46.532 219.997C46.532 219.997 46.6559 220.152 46.8812 220.473C47.1177 220.817 47.4444 221.294 47.8611 221.914C48.2892 222.557 48.8186 223.333 49.4719 224.253C50.114 225.174 50.8574 226.227 51.736 227.391C55.1828 232.069 60.5445 238.642 68.2605 245.682C72.1128 249.207 76.5508 252.821 81.507 256.468C86.4745 260.104 91.9038 263.829 97.5922 267.775C103.292 271.71 109.318 275.768 115.705 279.781C122.069 283.827 128.906 287.618 135.732 291.797C139.145 293.892 142.457 296.076 145.622 298.327C148.821 300.544 151.975 302.728 155.073 304.878C161.268 309.168 167.238 313.314 172.938 317.261C184.315 325.165 194.554 332.281 203.171 338.257C211.754 344.243 218.693 349.087 223.525 352.457C225.902 354.131 227.76 355.439 229.044 356.337C229.653 356.78 230.126 357.113 230.475 357.357C230.79 357.59 230.948 357.723 230.948 357.723L230.937 357.745Z" fill="#455A64"/>
<path d="M344.929 226.338C344.929 226.338 324.305 237.301 320.453 241.868C316.871 246.125 276.951 285.434 276.951 285.434C276.951 285.434 251.122 292.995 252.124 295.101C253.961 298.97 261.192 305.92 265.078 309.479C266.79 311.053 268.345 312.771 269.719 314.633C272.986 319.068 279.372 327.748 284.644 334.986C292.078 345.185 292.912 357.246 292.912 357.246L311.126 347.391C320.419 343.7 325.488 333.7 335.704 328.501L366.365 295.988L375.714 277.209L378.823 230.96L374.396 231.271L357.241 233.51C357.241 233.51 342.384 231.947 344.929 226.315V226.338Z" fill="#5C86D7"/>
<path d="M361.431 238.498L375.545 232.357C375.545 232.357 381.493 226.681 386.843 222.868C386.843 222.868 369.249 244.451 384.703 251.635C400.157 258.818 412.627 239.851 412.627 239.851C412.627 239.851 409.529 244.54 407.716 248.231C405.913 251.923 396.733 263.651 396.733 263.651C396.733 263.651 396.474 269.46 391.202 275.402C385.931 281.344 380.006 291.154 375.297 293.671C370.589 296.187 360.068 300.81 360.068 300.81C360.068 300.81 356.599 284.558 358.142 266.766C359.685 248.985 361.443 238.487 361.443 238.487L361.431 238.498Z" fill="#5C86D7"/>
<path d="M383.352 255.892C383.352 255.892 382.902 255.626 382.158 255.028C381.426 254.429 380.378 253.542 379.252 252.256C378.148 250.981 377.021 249.186 376.615 246.946C376.21 244.707 376.469 242.213 377.055 239.718C378.249 234.685 380.66 230.595 382.519 227.812C383.465 226.415 384.288 225.329 384.873 224.597C385.459 223.866 385.808 223.478 385.842 223.5C385.876 223.522 385.594 223.954 385.054 224.73C384.524 225.506 383.758 226.626 382.868 228.034C381.111 230.861 378.79 234.918 377.629 239.851C377.044 242.301 376.796 244.729 377.156 246.858C377.517 248.997 378.542 250.727 379.59 252.001C381.741 254.54 383.454 255.793 383.364 255.892H383.352Z" fill="#263238"/>
<path d="M381.245 272.687C381.245 272.687 381.065 272.798 380.704 272.942C380.344 273.086 379.803 273.319 379.093 273.563C377.674 274.018 375.568 274.694 372.831 274.738C371.479 274.716 369.947 274.516 368.494 273.763C367.052 273.02 365.779 271.734 364.991 270.115C363.391 266.867 363.222 262.854 363.549 258.841C363.932 254.806 364.698 251.004 365.937 247.7C367.199 244.396 368.899 241.692 370.398 239.508C371.918 237.324 373.259 235.65 374.194 234.497C374.633 233.965 374.993 233.532 375.286 233.189C375.545 232.889 375.68 232.745 375.703 232.756C375.726 232.768 375.613 232.945 375.376 233.255C375.106 233.621 374.768 234.076 374.363 234.63C373.484 235.827 372.189 237.534 370.724 239.729C369.282 241.935 367.638 244.64 366.421 247.888C365.239 251.137 364.495 254.928 364.112 258.897C363.786 262.854 363.955 266.79 365.453 269.883C366.185 271.424 367.368 272.632 368.697 273.341C370.037 274.062 371.501 274.284 372.808 274.328C375.455 274.339 377.562 273.729 378.992 273.352C379.657 273.142 380.197 272.976 380.625 272.831C380.997 272.721 381.2 272.665 381.211 272.687H381.245Z" fill="#263238"/>
<path d="M375.524 231.815C375.58 231.892 374.566 232.591 373.045 233.81C371.513 235.029 369.486 236.825 367.481 239.031C365.487 241.248 363.921 243.443 362.873 245.084C361.814 246.725 361.24 247.789 361.15 247.745C361.082 247.711 361.544 246.581 362.513 244.874C363.482 243.166 365.025 240.894 367.041 238.643C369.069 236.404 371.175 234.63 372.786 233.477C374.397 232.324 375.49 231.748 375.524 231.803V231.815Z" fill="#263238"/>
<g opacity="0.3">
<path d="M376.436 231.814C367.424 240.129 361.499 253.365 361.127 265.515C361.093 266.624 361.431 268.098 362.558 268.131C363.245 268.142 363.797 267.511 363.932 266.856C364.067 266.191 363.82 265.526 363.763 264.861C363.335 259.54 364.518 253.243 366.399 247.589C368.269 241.969 372.865 236.592 376.447 231.826L376.436 231.814Z" fill="black"/>
</g>
<g opacity="0.3">
<path d="M384.411 224.774C380.581 228.987 376.987 233.565 375.038 238.887C373.101 244.208 373.011 250.427 375.951 255.282C376.762 256.624 378.395 257.987 379.77 257.2C380.716 256.657 380.907 255.338 380.558 254.329C380.209 253.309 379.443 252.489 378.823 251.602C376.154 247.788 376.064 242.667 377.46 238.233C378.857 233.809 381.55 229.907 384.219 226.083" fill="black"/>
</g>
<g opacity="0.3">
<path d="M263.096 307.65C269.73 311.608 276.984 314.756 284.655 315.942C291.143 316.94 297.755 315.82 304.244 314.789C321.162 312.106 338.362 309.679 355.371 307.65C355.371 307.65 324.485 307.65 309.132 307.65C293.779 307.65 278.449 307.65 263.084 307.65" fill="black"/>
</g>
<path d="M324.496 357.257C324.496 357.257 324.834 357.102 325.476 356.98C326.119 356.858 327.087 356.78 328.27 356.88C330.624 357.057 333.88 358.21 336.493 360.716C337.778 361.957 338.859 363.31 339.546 364.718C340.256 366.115 340.526 367.522 340.571 368.686C340.616 369.862 340.425 370.793 340.278 371.425C340.098 372.045 339.963 372.378 339.929 372.367C339.805 372.345 340.312 370.959 340.154 368.709C340.053 367.589 339.76 366.27 339.062 364.951C338.386 363.62 337.338 362.323 336.088 361.126C333.576 358.709 330.478 357.556 328.225 357.279C325.938 356.98 324.519 357.368 324.496 357.257Z" fill="#263238"/>
<path d="M328.608 357.257H221.418C214.992 357.257 209.783 362.384 209.783 368.708V370.648C209.783 376.973 214.992 382.1 221.418 382.1H328.608C335.034 382.1 340.244 376.973 340.244 370.648V368.708C340.244 362.384 335.034 357.257 328.608 357.257Z" fill="#535E6B"/>
<path d="M408.987 251.645L407.682 250.794C403.429 248.021 397.698 249.166 394.88 253.35L318.426 366.902C315.608 371.087 316.771 376.728 321.023 379.501L322.328 380.352C326.581 383.126 332.312 381.981 335.13 377.796L411.584 264.244C414.402 260.059 413.239 254.418 408.987 251.645Z" fill="#455A64"/>
<path d="M263.445 331.572C263.659 331.572 271.33 338.954 273.132 343.932C274.923 348.909 277.288 361.103 278.37 365.737C279.857 372.089 282.256 378.208 291.076 378.607L324.463 378.74C326.513 378.74 328.439 377.72 329.554 376.024L358.784 331.56H349.649L324.136 368.974H295.21C293.193 368.974 291.233 368.109 290.006 366.535C289.611 366.025 289.285 365.438 289.116 364.795C288.462 362.223 286.176 348.898 283.405 343.112C280.634 337.325 276.714 331.549 276.714 331.549H263.445V331.572Z" fill="#1B2735"/>
<path d="M293.892 373.818C293.892 374.938 292.969 375.836 291.842 375.836C290.715 375.836 289.792 374.927 289.792 373.818C289.792 372.71 290.715 371.801 291.842 371.801C292.969 371.801 293.892 372.71 293.892 373.818Z" fill="#535E6B"/>
<path d="M326.198 373.818C326.198 374.938 325.274 375.836 324.147 375.836C323.021 375.836 322.097 374.927 322.097 373.818C322.097 372.71 323.021 371.801 324.147 371.801C325.274 371.801 326.198 372.71 326.198 373.818Z" fill="#535E6B"/>
<path d="M364.765 325.464H255.887C254.307 325.464 253.026 326.725 253.026 328.28V328.757C253.026 330.312 254.307 331.573 255.887 331.573H364.765C366.346 331.573 367.627 330.312 367.627 328.757V328.28C367.627 326.725 366.346 325.464 364.765 325.464Z" fill="#263238"/>
<path d="M300.628 325.464C300.628 325.464 300.526 325.486 300.346 325.486L299.501 325.519C298.724 325.53 297.631 325.564 296.235 325.586C293.351 325.619 289.206 325.675 284.024 325.741C278.809 325.785 272.546 325.841 265.45 325.819C263.681 325.808 261.857 325.785 259.976 325.774C258.128 325.785 256.101 325.397 254.49 326.351C253.724 326.816 253.24 327.681 253.476 328.568C253.611 329.466 254.389 330.12 255.267 330.508C257.069 331.273 259.21 331.384 261.271 331.295H261.293C268.221 331.295 275.689 331.295 283.416 331.284C305.708 331.317 325.893 331.35 340.536 331.373C347.824 331.406 353.727 331.439 357.849 331.461C359.866 331.483 361.443 331.506 362.558 331.517C363.076 331.528 363.481 331.539 363.786 331.55C364.056 331.55 364.202 331.572 364.202 331.583C364.202 331.594 364.056 331.605 363.786 331.616C363.481 331.616 363.076 331.628 362.558 331.65C361.443 331.661 359.866 331.683 357.849 331.705C353.727 331.727 347.824 331.761 340.536 331.794C325.893 331.816 305.708 331.849 283.416 331.883C275.689 331.883 268.221 331.883 261.293 331.883H261.316C259.165 331.96 257.013 331.871 255.042 331.04C254.084 330.63 253.116 329.832 252.947 328.712C252.924 328.435 252.879 328.191 252.89 327.903C252.924 327.626 252.992 327.36 253.116 327.116C253.352 326.617 253.758 326.229 254.208 325.952C255.121 325.408 256.157 325.264 257.137 325.242C258.128 325.242 259.052 325.309 259.987 325.32C261.857 325.342 263.681 325.364 265.45 325.386C272.535 325.408 278.798 325.42 284.024 325.431C289.206 325.431 293.351 325.431 296.235 325.442C297.631 325.442 298.724 325.464 299.501 325.464C299.85 325.464 300.132 325.475 300.346 325.486C300.538 325.486 300.628 325.497 300.628 325.508V325.464Z" fill="#1B2735"/>
<path d="M276.951 359.219C276.951 359.219 276.771 358.809 276.568 358.055C276.332 357.169 276.05 356.093 275.723 354.83C275.003 352.114 274.146 348.322 272.614 344.331C271.848 342.336 270.958 340.507 270.012 338.922C269.032 337.347 268.052 336.006 267.117 334.953C265.27 332.835 263.884 331.738 263.963 331.649C263.986 331.616 264.346 331.882 264.966 332.37C265.596 332.858 266.453 333.634 267.433 334.676C268.413 335.707 269.46 337.059 270.474 338.644C271.465 340.252 272.378 342.103 273.155 344.132C274.71 348.178 275.498 352.003 276.118 354.741C276.411 356.115 276.636 357.235 276.782 358.011C276.929 358.787 276.985 359.219 276.951 359.231V359.219Z" fill="#455A64"/>
<path d="M280.86 382.1H273.594V472.214H280.86V382.1Z" fill="#263238"/>
<path d="M279.384 457.769L354.876 472.391V480.151L279.384 468.965V457.769Z" fill="#263238"/>
<path d="M348.185 492.334C351.881 492.334 354.876 489.386 354.876 485.749C354.876 482.112 351.881 479.164 348.185 479.164C344.49 479.164 341.494 482.112 341.494 485.749C341.494 489.386 344.49 492.334 348.185 492.334Z" fill="#263238"/>
<path d="M277.435 457.769L216.338 472.446V480.206L277.435 468.256V457.769Z" fill="#263238"/>
<path d="M223.03 492.334C226.725 492.334 229.721 489.386 229.721 485.749C229.721 482.112 226.725 479.164 223.03 479.164C219.334 479.164 216.338 482.112 216.338 485.749C216.338 489.386 219.334 492.334 223.03 492.334Z" fill="#263238"/>
<path d="M277.244 492.334C280.939 492.334 283.935 489.386 283.935 485.749C283.935 482.112 280.939 479.164 277.244 479.164C273.548 479.164 270.553 482.112 270.553 485.749C270.553 489.386 273.548 492.334 277.244 492.334Z" fill="#263238"/>
<path d="M284.859 479.164H269.696L269.854 422.794H285.017L284.859 479.164Z" fill="#263238"/>
<path d="M284.453 422.917C284.453 423.072 281.243 423.206 277.278 423.206C273.312 423.206 270.102 423.072 270.102 422.917C270.102 422.762 273.312 422.628 277.278 422.628C281.243 422.628 284.453 422.762 284.453 422.917Z" fill="#455A64"/>
<path d="M283.98 469.62C283.98 469.775 280.77 469.908 276.805 469.908C272.839 469.908 269.629 469.775 269.629 469.62C269.629 469.464 272.839 469.331 276.805 469.331C280.77 469.331 283.98 469.464 283.98 469.62Z" fill="#455A64"/>
<path d="M381.425 292.208H22.5957V307.65H381.425V292.208Z" fill="#455A64"/>
<path d="M98.6173 292.429C98.6173 292.429 98.5835 292.496 98.5047 292.596C98.4258 292.695 98.3019 292.862 98.1329 293.061C97.7725 293.438 97.2093 293.992 96.3307 294.48C95.4521 294.968 94.2806 295.411 92.8613 295.622C91.4533 295.855 89.82 295.888 88.029 295.833C86.2268 295.777 84.2781 295.5 82.2055 295.179C80.1329 294.857 77.9251 294.469 75.5822 294.403C70.8738 294.236 65.7712 295.445 60.6685 297.252C55.5434 299.047 50.7674 301.098 46.1941 302.351C43.9075 302.983 41.6998 303.426 39.5934 303.637C37.487 303.848 35.5158 303.814 33.7248 303.626C30.1428 303.238 27.3943 302.107 25.6822 301.087C23.9588 300.056 23.1928 299.258 23.1928 299.258C23.1928 299.258 23.2604 299.291 23.3618 299.369C23.4857 299.469 23.6434 299.58 23.8461 299.724C24.2629 300.034 24.905 300.466 25.7723 300.943C27.4957 301.908 30.2216 302.972 33.7698 303.316C35.5383 303.482 37.487 303.504 39.5708 303.271C41.6434 303.049 43.8399 302.595 46.104 301.952C50.6435 300.688 55.4082 298.637 60.5446 296.83C65.6698 295.023 70.84 293.804 75.6272 293.992C78.0152 294.07 80.2343 294.48 82.2956 294.813C84.3682 295.156 86.2944 295.445 88.0741 295.522C89.8538 295.6 91.4646 295.589 92.8613 295.378C94.2581 295.19 95.407 294.779 96.2856 294.325C98.0316 293.372 98.606 292.363 98.6624 292.418L98.6173 292.429Z" fill="#263238"/>
<path d="M59.362 292.662C59.362 292.662 58.9903 293.006 58.2807 293.571C57.5598 294.125 56.4559 294.868 55.0028 295.644C53.5497 296.398 51.7475 297.196 49.6524 297.784C47.5572 298.371 45.1805 298.781 42.6573 298.859C37.5998 299.036 33.0941 297.762 30.1542 296.32C28.6786 295.578 27.6423 294.658 27.1354 293.893C26.8651 293.516 26.7299 293.183 26.6398 292.961C26.5609 292.729 26.5384 292.607 26.5497 292.607C26.5947 292.584 26.7186 293.083 27.2706 293.793C27.8113 294.502 28.825 295.356 30.2894 296.043C33.218 297.396 37.6673 298.593 42.6461 298.427C45.1242 298.349 47.4671 297.961 49.5397 297.396C51.6123 296.83 53.4033 296.065 54.8564 295.367C56.3094 294.635 57.4246 293.937 58.168 293.427C58.9115 292.906 59.3395 292.629 59.3508 292.651L59.362 292.662Z" fill="#263238"/>
<path d="M143.561 302.451C143.561 302.451 143.752 302.506 144.113 302.65C144.485 302.772 145.025 302.949 145.769 303.082C147.222 303.326 149.565 303.415 152.043 302.118L152.02 302.318C150.128 300.876 147.458 299.624 144.237 299.335C141.049 299.036 137.287 299.701 134.11 301.93C133.727 302.196 133.367 302.528 133.322 302.927C133.266 303.337 133.581 303.692 133.998 303.925C134.415 304.158 134.888 304.302 135.383 304.402C135.89 304.513 136.397 304.623 136.915 304.745C138.965 305.2 141.094 305.643 143.279 305.954C145.476 306.275 147.74 306.486 150.049 306.408C151.209 306.386 152.37 306.264 153.53 306.076C154.104 305.976 154.69 305.865 155.264 305.721C155.85 305.599 156.402 305.422 156.943 305.189C157.788 304.823 158.576 304.324 159.117 303.648C159.669 302.972 159.838 302.063 159.533 301.275C159.241 300.477 158.554 299.868 157.833 299.402C157.1 298.925 156.267 298.582 155.456 298.26C152.155 296.985 148.742 296.42 145.487 296.22C138.954 295.843 133.074 297.085 128.478 298.814C123.86 300.555 120.447 302.683 118.239 304.324C117.147 305.155 116.302 305.81 115.761 306.297C115.502 306.519 115.288 306.696 115.13 306.829C114.984 306.951 114.905 307.007 114.905 306.996C114.905 306.996 114.961 306.918 115.097 306.796C115.254 306.652 115.446 306.464 115.705 306.231C116.223 305.721 117.057 305.045 118.138 304.191C120.323 302.506 123.736 300.322 128.377 298.537C132.995 296.753 138.931 295.478 145.521 295.832C148.799 296.021 152.268 296.575 155.625 297.872C156.458 298.205 157.303 298.548 158.092 299.058C158.858 299.557 159.624 300.211 159.973 301.142C160.333 302.063 160.119 303.171 159.488 303.925C158.88 304.701 158.024 305.222 157.145 305.61C156.582 305.854 155.985 306.042 155.4 306.164C154.814 306.319 154.228 306.43 153.631 306.53C152.448 306.719 151.266 306.841 150.094 306.863C147.751 306.94 145.453 306.719 143.246 306.397C141.038 306.076 138.909 305.621 136.848 305.167C136.329 305.045 135.823 304.934 135.316 304.823C134.809 304.712 134.279 304.568 133.818 304.291C133.581 304.158 133.356 303.98 133.187 303.748C133.018 303.515 132.916 303.204 132.961 302.916C133.04 302.306 133.513 301.93 133.908 301.641C137.197 299.369 141.049 298.715 144.293 299.047C147.582 299.369 150.297 300.677 152.201 302.162L152.347 302.273L152.178 302.351C149.61 303.648 147.222 303.526 145.757 303.238C144.271 302.927 143.572 302.484 143.572 302.484L143.561 302.451Z" fill="#263238"/>
<path d="M189.733 292.829C189.733 292.829 189.914 293.084 190.083 293.605C190.251 294.126 190.409 294.935 190.319 295.922C190.195 297.917 188.956 300.522 186.827 302.662C185.791 303.759 184.675 304.679 183.56 305.389C182.445 306.087 181.352 306.575 180.406 306.896C179.46 307.207 178.671 307.362 178.119 307.462C177.567 307.539 177.263 307.562 177.263 307.528C177.252 307.451 178.469 307.284 180.293 306.608C181.206 306.265 182.253 305.766 183.324 305.056C184.394 304.347 185.475 303.438 186.489 302.362C188.584 300.267 189.801 297.795 189.992 295.888C190.229 293.97 189.609 292.851 189.711 292.829H189.733Z" fill="#263238"/>
<path d="M254.163 306.841C254.163 306.841 253.656 306.187 252.519 305.267C251.392 304.358 249.511 303.183 246.909 302.773C245.614 302.551 244.172 302.629 242.64 302.895C241.108 303.139 239.441 303.538 237.628 303.349C235.78 303.183 234.136 302.085 232.638 300.944C231.139 299.769 229.529 298.66 227.625 298.017C223.84 296.687 219.83 296.908 216.496 297.851C213.139 298.793 210.402 300.434 208.262 301.952C206.122 303.493 204.556 304.946 203.486 305.965C202.979 306.453 202.574 306.852 202.27 307.152C201.988 307.418 201.842 307.562 201.83 307.551C201.819 307.551 201.943 307.384 202.202 307.096C202.461 306.808 202.844 306.387 203.362 305.855C204.398 304.801 205.942 303.305 208.071 301.72C210.2 300.157 212.959 298.46 216.372 297.474C219.763 296.498 223.852 296.243 227.76 297.618C229.72 298.272 231.399 299.447 232.885 300.611C234.372 301.764 235.938 302.795 237.65 302.961C239.362 303.15 241.007 302.784 242.55 302.551C244.093 302.296 245.603 302.241 246.932 302.485C249.601 302.939 251.494 304.181 252.609 305.145C253.735 306.132 254.141 306.852 254.141 306.852L254.163 306.841Z" fill="#263238"/>
<path d="M311.7 292.352C311.7 292.352 311.576 292.54 311.306 292.884C311.025 293.216 310.664 293.737 310.078 294.314C308.986 295.544 307.229 297.163 304.841 298.892C302.453 300.622 299.389 302.395 295.75 303.847C293.937 304.579 291.977 305.222 289.893 305.688C287.809 306.153 285.613 306.508 283.337 306.519C278.775 306.541 274.518 305.433 270.902 303.969C267.275 302.495 264.222 300.677 261.857 298.925C259.491 297.174 257.745 295.533 256.653 294.303C256.078 293.715 255.706 293.194 255.425 292.873C255.155 292.54 255.019 292.352 255.031 292.352C255.042 292.352 255.2 292.507 255.492 292.817C255.797 293.128 256.18 293.626 256.777 294.192C257.903 295.378 259.66 296.974 262.037 298.682C264.402 300.389 267.444 302.162 271.048 303.604C274.641 305.034 278.854 306.109 283.326 306.087C285.568 306.087 287.73 305.732 289.792 305.278C291.853 304.823 293.79 304.191 295.593 303.482C299.208 302.063 302.261 300.333 304.649 298.648C307.037 296.963 308.817 295.389 309.943 294.203C310.54 293.638 310.923 293.139 311.227 292.828C311.52 292.507 311.678 292.352 311.689 292.352H311.7Z" fill="#263238"/>
<path d="M303.478 292.208C303.478 292.208 303.376 292.307 303.173 292.452C302.959 292.596 302.655 292.817 302.238 293.072C301.427 293.593 300.2 294.303 298.645 295.079C297.08 295.844 295.176 296.675 292.968 297.351C290.772 298.028 288.248 298.593 285.556 298.593C280.161 298.56 275.509 296.83 272.4 295.323C270.834 294.547 269.629 293.815 268.84 293.261C268.435 292.995 268.142 292.762 267.939 292.607C267.737 292.452 267.635 292.363 267.646 292.352C267.669 292.319 268.12 292.618 268.942 293.117C269.764 293.627 270.981 294.314 272.546 295.046C275.655 296.476 280.273 298.127 285.568 298.161C288.192 298.161 290.67 297.618 292.855 296.963C295.041 296.309 296.956 295.522 298.521 294.791C300.087 294.059 301.326 293.394 302.16 292.917C303.004 292.44 303.466 292.174 303.489 292.197L303.478 292.208Z" fill="#263238"/>
<path d="M366.241 293.782C366.241 293.782 365.993 293.793 365.532 293.782C364.98 293.76 364.315 293.737 363.504 293.704C363.053 293.682 362.569 293.66 362.051 293.638C361.51 293.638 360.925 293.638 360.305 293.638C359.055 293.638 357.635 293.604 356.07 293.682C355.281 293.704 354.459 293.726 353.614 293.76C352.758 293.815 351.879 293.87 350.956 293.937C349.12 294.026 347.182 294.281 345.144 294.469C341.088 294.968 336.695 295.688 332.224 296.675C327.774 297.684 323.697 298.881 320.115 300.078C318.369 300.721 316.668 301.287 315.192 301.93C314.449 302.24 313.717 302.539 313.018 302.817C312.354 303.127 311.712 303.415 311.103 303.703C309.853 304.247 308.828 304.812 307.904 305.289C307.443 305.522 307.014 305.743 306.62 305.954C306.26 306.164 305.911 306.364 305.595 306.552C305.021 306.874 304.559 307.151 304.165 307.373C303.827 307.561 303.647 307.65 303.624 307.639C303.601 307.639 303.748 307.517 304.052 307.317C304.412 307.074 304.852 306.785 305.381 306.442C305.685 306.253 306.012 306.043 306.361 305.81C306.755 305.588 307.172 305.355 307.611 305.111C308.513 304.612 309.526 304.036 310.754 303.46C311.362 303.171 311.993 302.861 312.658 302.539C313.356 302.24 314.077 301.941 314.821 301.619C316.285 300.965 317.997 300.378 319.743 299.724C323.336 298.493 327.436 297.285 331.931 296.265C336.448 295.267 340.897 294.558 344.997 294.07C347.07 293.881 349.018 293.649 350.877 293.571C351.801 293.516 352.69 293.471 353.558 293.416C354.414 293.394 355.247 293.383 356.047 293.372C357.624 293.316 359.066 293.372 360.316 293.394C360.936 293.405 361.522 293.427 362.062 293.438C362.592 293.471 363.076 293.505 363.527 293.538C364.326 293.604 364.991 293.649 365.543 293.693C366.005 293.737 366.241 293.76 366.241 293.782Z" fill="#263238"/>
<path d="M260.618 306.53C260.618 306.53 260.066 305.577 258.646 304.224C257.238 302.872 254.794 301.286 251.415 300.244C249.736 299.723 247.833 299.335 245.772 299.014C243.71 298.692 241.491 298.437 239.171 298.049C236.839 297.672 234.451 297.018 232.007 296.287C229.562 295.566 227.028 294.801 224.358 294.469C218.997 293.804 213.826 294.912 209.467 296.497C207.271 297.284 205.266 298.238 203.407 299.18C201.549 300.111 199.848 301.043 198.305 301.896C195.218 303.614 192.763 305.078 191.062 306.098C190.239 306.596 189.586 306.984 189.113 307.273C188.91 307.395 188.741 307.494 188.606 307.572C188.494 307.639 188.426 307.672 188.426 307.661C188.426 307.661 188.471 307.616 188.584 307.539C188.719 307.45 188.876 307.339 189.068 307.206C189.496 306.918 190.138 306.486 190.972 305.965C192.639 304.9 195.072 303.393 198.147 301.641C199.69 300.765 201.38 299.823 203.238 298.87C205.097 297.916 207.113 296.941 209.321 296.132C213.714 294.513 218.952 293.371 224.404 294.047C227.118 294.38 229.675 295.167 232.119 295.888C234.564 296.63 236.918 297.284 239.227 297.672C241.536 298.072 243.744 298.338 245.817 298.681C247.878 299.014 249.793 299.424 251.494 299.967C254.907 301.054 257.362 302.705 258.748 304.113C260.156 305.521 260.606 306.541 260.606 306.541L260.618 306.53Z" fill="#263238"/>
<path d="M179.798 292.429C179.798 292.429 179.831 292.784 179.741 293.416C179.662 294.048 179.448 294.957 179.043 296.021C178.221 298.127 176.52 300.987 173.524 302.961C170.539 304.845 167.52 305.932 165.346 306.663C164.253 307.018 163.363 307.273 162.733 307.439C162.113 307.594 161.764 307.672 161.753 307.639C161.753 307.606 162.079 307.484 162.687 307.273C163.375 307.029 164.231 306.73 165.244 306.375C167.373 305.577 170.358 304.446 173.276 302.595C176.148 300.688 177.86 297.928 178.739 295.899C179.629 293.826 179.696 292.407 179.786 292.418L179.798 292.429Z" fill="#263238"/>
<path d="M96.4996 307.651C96.4996 307.651 96.7924 307.341 97.3782 306.82C97.9526 306.299 98.8312 305.6 99.9351 304.758C102.143 303.084 105.364 300.977 109.082 298.96C112.81 296.942 116.291 295.335 118.825 294.182C120.087 293.616 121.123 293.162 121.833 292.863C122.542 292.563 122.948 292.408 122.959 292.43C122.97 292.452 122.598 292.663 121.9 293.018C121.134 293.395 120.143 293.883 118.949 294.47C116.46 295.678 113.001 297.341 109.284 299.348C105.578 301.354 102.357 303.416 100.104 305.013C98.9777 305.811 98.0765 306.476 97.4683 306.953C96.86 307.418 96.4996 307.673 96.4883 307.651H96.4996Z" fill="#263238"/>
<path d="M113.396 293.062C113.396 293.062 112.562 292.962 111.075 293.062C109.6 293.172 107.46 293.66 105.094 294.857C102.695 296.01 100.16 297.917 97.3218 299.99C95.8913 301.021 94.3594 302.074 92.636 302.972C90.9238 303.881 89.0202 304.569 87.0377 305.09C83.0389 306.098 79.1078 306.331 75.5708 306.442C72.0226 306.542 68.8349 306.475 66.1653 306.586C63.4957 306.675 61.3443 306.93 59.8799 307.196C59.1478 307.329 58.5733 307.44 58.1903 307.528C57.8073 307.617 57.6046 307.65 57.5933 307.639C57.5933 307.628 57.7848 307.562 58.1678 307.451C58.5395 307.329 59.114 307.196 59.8461 307.041C61.3105 306.73 63.4732 306.431 66.154 306.298C68.8349 306.154 72.0226 306.187 75.5596 306.065C79.0852 305.932 82.9826 305.688 86.9251 304.69C88.885 304.181 90.7436 303.493 92.4332 302.617C94.1228 301.742 95.6435 300.7 97.0853 299.68C99.9351 297.629 102.515 295.722 104.959 294.591C107.381 293.416 109.566 292.973 111.075 292.906C111.83 292.873 112.416 292.906 112.81 292.962C113.204 293.017 113.407 293.05 113.407 293.073L113.396 293.062Z" fill="#263238"/>
<path d="M55.6113 492.722H50.5084L47.6133 306.452H58.5176L55.6113 492.722Z" fill="#455A64"/>
<path d="M384.354 492.334H379.251L381.808 306.984H392.713L384.354 492.334Z" fill="#263238"/>
<path d="M409.822 292.208H364.326V307.65H409.822V292.208Z" fill="#263238"/>
<path d="M81.9241 265.724L86.0467 292.385H110.005L115.559 266.112L81.9241 265.724Z" fill="#FD834D"/>
<path d="M112.213 282.807C112.213 282.885 106.074 282.941 98.5047 282.941C90.9352 282.941 84.7962 282.874 84.7962 282.807C84.7962 282.741 90.9352 282.674 98.5047 282.674C106.074 282.674 112.213 282.741 112.213 282.807Z" fill="#FAFAFA"/>
<path d="M112.303 281.5C112.303 281.578 106.13 281.633 98.5046 281.633C90.8788 281.633 84.7061 281.567 84.7061 281.5C84.7061 281.433 90.8788 281.366 98.5046 281.366C106.13 281.366 112.303 281.433 112.303 281.5Z" fill="#FAFAFA"/>
<path d="M112.258 280.025C112.258 280.103 106.085 280.159 98.4596 280.159C90.8338 280.159 84.6611 280.092 84.6611 280.025C84.6611 279.958 90.8338 279.892 98.4596 279.892C106.085 279.892 112.258 279.958 112.258 280.025Z" fill="#FAFAFA"/>
<path d="M88.8061 290.866C88.7273 290.877 88.4007 289.38 88.0742 287.507C87.7476 285.645 87.5449 284.115 87.6124 284.104C87.6913 284.092 88.0178 285.589 88.3444 287.463C88.671 289.325 88.8737 290.855 88.8061 290.866Z" fill="#FAFAFA"/>
<path d="M90.4282 290.578C90.3494 290.578 90.2593 289.115 90.1354 287.308C90.0115 285.501 89.8989 284.026 89.9777 284.026C90.0566 284.026 90.293 285.479 90.4169 287.297C90.5408 289.115 90.507 290.589 90.4282 290.589V290.578Z" fill="#FAFAFA"/>
<path d="M93.4018 290.578C93.323 290.589 92.9964 289.092 92.7824 287.219C92.5572 285.345 92.5234 283.815 92.6022 283.804C92.6811 283.804 92.8387 285.312 93.064 287.185C93.2892 289.048 93.4919 290.567 93.4131 290.578H93.4018Z" fill="#FAFAFA"/>
<path d="M95.4858 290.722C95.407 290.722 95.2155 289.203 95.1592 287.307C95.0917 285.412 95.193 283.882 95.2606 283.882C95.3394 283.882 95.3732 285.412 95.4408 287.296C95.4971 289.181 95.5759 290.711 95.4971 290.722H95.4858Z" fill="#FAFAFA"/>
<path d="M99.1805 290.578C99.1016 290.578 98.989 289.126 98.9327 287.341C98.8764 285.545 98.8877 284.093 98.9665 284.093C99.0453 284.093 99.1579 285.545 99.2142 287.33C99.2706 289.126 99.2593 290.578 99.1805 290.578Z" fill="#FAFAFA"/>
<path d="M101.873 290.722C101.794 290.722 101.749 289.226 101.76 287.374C101.771 285.523 101.85 284.026 101.929 284.026C102.008 284.026 102.053 285.523 102.042 287.374C102.03 289.226 101.951 290.722 101.873 290.722Z" fill="#FAFAFA"/>
<path d="M104.396 290.368C104.317 290.368 104.407 288.793 104.598 286.864C104.79 284.936 105.004 283.384 105.083 283.395C105.162 283.395 105.071 284.969 104.88 286.898C104.689 288.827 104.475 290.379 104.396 290.368Z" fill="#FAFAFA"/>
<path d="M107.651 290.013C107.572 290.013 107.696 288.66 108.057 287.031C108.417 285.401 108.879 284.137 108.946 284.159C109.025 284.182 108.687 285.479 108.327 287.097C107.966 288.705 107.73 290.024 107.651 290.013Z" fill="#FAFAFA"/>
<path d="M79.1867 260.448V265.437C79.1867 266.523 80.0766 267.399 81.1805 267.399H115.863C116.967 267.399 117.856 266.523 117.856 265.437V260.448H79.1867Z" fill="#FD834D"/>
<g opacity="0.4">
<path d="M82.1832 267.398L82.476 268.984L114.477 271.234L115.288 267.398H82.1832Z" fill="black"/>
</g>
<path d="M91.7575 260.438C86.6661 257.534 83.9402 250.771 83.7261 245.229C83.5234 239.697 85.8663 233.921 90.4733 230.739C95.3282 227.392 102.256 227.458 107.246 230.606C112.236 233.755 115.164 239.697 114.939 245.528C114.714 251.359 111.481 256.924 106.705 260.383" fill="#535E6B"/>
<path d="M99.8898 260.97C99.8898 260.97 99.8222 260.516 99.7997 259.707C99.7772 258.798 99.7434 257.645 99.6983 256.259C99.6195 253.343 99.5069 249.319 99.3042 244.874C99.1015 240.428 98.865 236.404 98.6736 233.5C98.5947 232.114 98.5159 230.961 98.4596 230.052C98.4146 229.232 98.4033 228.788 98.4371 228.777C98.4709 228.777 98.5384 229.221 98.6398 230.03C98.7411 230.839 98.865 232.014 99.0001 233.467C99.2704 236.371 99.5632 240.395 99.7659 244.852C99.9686 249.297 100.025 253.332 100.014 256.248C100.014 257.711 99.9911 258.886 99.9574 259.707C99.9348 260.527 99.9011 260.97 99.8673 260.97H99.8898Z" fill="#EFF4FC"/>
<path d="M85.2475 243.975C85.2475 244.108 84.4251 244.142 83.4337 244.064C82.4422 243.986 81.6424 243.809 81.6536 243.687C81.6536 243.554 82.4761 243.52 83.4675 243.598C84.4589 243.676 85.2587 243.853 85.2475 243.975Z" fill="#EFF4FC"/>
<path d="M85.5178 239.01C85.4615 239.132 84.763 238.932 83.9519 238.588C83.1407 238.234 82.5211 237.846 82.5774 237.735C82.6337 237.613 83.3322 237.812 84.1434 238.156C84.9545 238.511 85.5742 238.899 85.5178 239.01Z" fill="#EFF4FC"/>
<path d="M88.1196 235.317C88.052 235.428 87.2634 235.062 86.441 234.386C85.6186 233.721 85.1116 233.023 85.2017 232.934C85.3031 232.845 85.9453 233.377 86.7452 234.02C87.5338 234.663 88.1872 235.196 88.1196 235.306V235.317Z" fill="#EFF4FC"/>
<path d="M90.7321 231.837C90.6082 231.892 90.2366 231.305 89.8875 230.54C89.5384 229.775 89.3582 229.11 89.4821 229.054C89.606 228.999 89.9776 229.587 90.3267 230.351C90.6758 231.116 90.856 231.782 90.7321 231.837Z" fill="#EFF4FC"/>
<path d="M94.821 229.375C94.7084 229.431 94.2918 228.81 94.0328 227.956C93.7625 227.103 93.74 226.36 93.8638 226.338C93.999 226.316 94.2242 226.992 94.4832 227.812C94.7422 228.633 94.9449 229.32 94.821 229.375Z" fill="#EFF4FC"/>
<path d="M101.67 226.593C101.794 226.637 101.715 227.169 101.501 227.768C101.287 228.378 101.005 228.832 100.881 228.788C100.758 228.743 100.836 228.211 101.05 227.613C101.264 227.003 101.546 226.548 101.67 226.593Z" fill="#EFF4FC"/>
<path d="M106.738 228.733C106.828 228.832 106.502 229.265 106.018 229.719C105.522 230.163 105.06 230.451 104.97 230.351C104.88 230.251 105.207 229.819 105.702 229.365C106.198 228.921 106.659 228.633 106.75 228.733H106.738Z" fill="#EFF4FC"/>
<path d="M111.199 231.571C111.278 231.681 110.872 232.069 110.309 232.446C109.746 232.823 109.228 233.045 109.161 232.934C109.093 232.823 109.487 232.435 110.05 232.058C110.613 231.681 111.131 231.471 111.199 231.571Z" fill="#EFF4FC"/>
<path d="M114.376 235.795C114.433 235.916 113.802 236.293 112.979 236.637C112.157 236.981 111.447 237.169 111.391 237.047C111.334 236.925 111.965 236.548 112.788 236.205C113.61 235.861 114.32 235.673 114.376 235.795Z" fill="#EFF4FC"/>
<path d="M115.615 240.417C115.627 240.551 114.996 240.728 114.196 240.828C113.396 240.928 112.731 240.906 112.72 240.772C112.709 240.639 113.34 240.462 114.139 240.362C114.939 240.262 115.604 240.284 115.615 240.417Z" fill="#EFF4FC"/>
<path d="M116.269 246.093C116.212 246.215 115.536 246.037 114.759 245.705C113.97 245.372 113.385 245.006 113.441 244.884C113.497 244.762 114.173 244.94 114.951 245.272C115.739 245.605 116.325 245.971 116.269 246.093Z" fill="#EFF4FC"/>
<path d="M115.694 250.97C115.649 251.092 114.793 250.892 113.903 250.305C113.002 249.728 112.472 249.041 112.562 248.952C112.664 248.864 113.306 249.374 114.162 249.906C115.007 250.449 115.739 250.837 115.694 250.959V250.97Z" fill="#EFF4FC"/>
<path d="M113.114 255.404C113.035 255.504 112.348 255.116 111.695 254.418C111.042 253.719 110.692 253.021 110.794 252.955C110.906 252.877 111.413 253.431 112.044 254.096C112.674 254.762 113.192 255.305 113.114 255.404Z" fill="#EFF4FC"/>
<path d="M88.6379 255.926C88.6942 256.037 87.9844 256.524 87.0381 257.012C86.0918 257.5 85.2806 257.799 85.213 257.677C85.1567 257.566 85.8664 257.079 86.8128 256.591C87.7591 256.103 88.5703 255.804 88.6379 255.926Z" fill="#EFF4FC"/>
<path d="M86.3962 251.912C86.4525 252.034 85.878 252.4 85.1119 252.744C84.3458 253.088 83.6811 253.265 83.636 253.143C83.5797 253.021 84.1543 252.655 84.9203 252.312C85.6864 251.968 86.3511 251.791 86.3962 251.912Z" fill="#EFF4FC"/>
<path d="M84.7521 248.354C84.7746 248.487 84.0649 248.687 83.1749 248.809C82.2849 248.931 81.5526 248.931 81.53 248.809C81.5075 248.676 82.2173 248.476 83.1073 248.354C83.9973 248.232 84.7296 248.232 84.7521 248.354Z" fill="#EFF4FC"/>
<path d="M90.1472 246.404C90.181 246.526 89.4938 246.836 88.5813 246.947C87.6574 247.047 86.9139 246.892 86.9252 246.77C86.9252 246.637 87.6574 246.581 88.5249 246.481C89.3924 246.381 90.1134 246.282 90.1472 246.415V246.404Z" fill="#EFF4FC"/>
<path d="M94.6302 242.013C94.664 242.135 94.1233 242.413 93.3797 242.479C92.6362 242.557 92.0503 242.39 92.0616 242.257C92.0729 242.124 92.6474 242.08 93.3346 242.002C94.0219 241.935 94.5964 241.88 94.6302 242.002V242.013Z" fill="#EFF4FC"/>
<path d="M95.4863 238.5C95.4413 238.622 94.8442 238.534 94.1569 238.3C93.4697 238.067 92.9402 237.779 92.9853 237.657C93.0303 237.535 93.6274 237.623 94.3147 237.857C95.0019 238.09 95.5314 238.378 95.4863 238.5Z" fill="#EFF4FC"/>
<path d="M97.1189 234.941C97.0288 235.03 96.6234 234.764 96.3306 234.265C96.0378 233.766 96.0041 233.289 96.1392 233.256C96.2631 233.223 96.4883 233.589 96.7473 234.032C97.0063 234.475 97.2203 234.852 97.1189 234.941Z" fill="#EFF4FC"/>
<path d="M95.1474 249.496C95.1812 249.619 94.6632 249.852 93.9988 250.018C93.6159 250.107 93.2668 250.162 93.0303 250.162L92.9402 249.885C93.1091 249.852 93.2218 249.863 93.2443 249.907C93.2668 249.963 93.1992 250.04 93.0528 250.151L92.9627 249.874C93.1654 249.763 93.5033 249.652 93.8862 249.563C94.5506 249.408 95.1137 249.374 95.1474 249.496Z" fill="#EFF4FC"/>
<path d="M96.0721 255.726C96.1172 255.848 95.4638 256.214 94.6076 256.546C93.7514 256.879 93.0191 257.045 92.9627 256.923C92.9177 256.801 93.5711 256.435 94.4273 256.103C95.2835 255.77 96.0158 255.604 96.0721 255.726Z" fill="#EFF4FC"/>
<path d="M91.0023 252.955C91.0473 253.077 90.6081 253.332 90.0225 253.532C89.4369 253.732 88.9302 253.787 88.8964 253.665C88.8514 253.543 89.2905 253.288 89.8761 253.088C90.4617 252.888 90.9685 252.833 91.0023 252.955Z" fill="#EFF4FC"/>
<path d="M91.3976 240.273C91.3638 240.395 90.6089 240.328 89.7302 240.018C88.8514 239.708 88.2093 239.297 88.2656 239.187C88.3219 239.065 89.0317 239.286 89.8879 239.575C90.7441 239.874 91.4314 240.151 91.3976 240.273Z" fill="#EFF4FC"/>
<path d="M103.641 238.898C103.708 239.009 103.28 239.408 102.683 239.796C102.087 240.184 101.535 240.417 101.467 240.306C101.4 240.195 101.827 239.796 102.424 239.408C103.021 239.02 103.573 238.787 103.641 238.898Z" fill="#EFF4FC"/>
<path d="M104.305 245.151C104.328 245.273 103.877 245.472 103.303 245.594C102.717 245.717 102.222 245.705 102.199 245.583C102.177 245.461 102.627 245.261 103.202 245.139C103.787 245.017 104.283 245.028 104.305 245.151Z" fill="#EFF4FC"/>
<path d="M105.083 252.19C105.027 252.312 104.374 252.123 103.63 251.791C102.886 251.447 102.323 251.081 102.38 250.959C102.436 250.837 103.089 251.026 103.833 251.358C104.576 251.702 105.14 252.068 105.083 252.19Z" fill="#EFF4FC"/>
<path d="M103.438 259.04C103.337 259.118 102.92 258.785 102.492 258.287C102.075 257.788 101.816 257.311 101.918 257.233C102.019 257.156 102.436 257.488 102.864 257.987C103.28 258.486 103.539 258.963 103.438 259.04Z" fill="#EFF4FC"/>
<path d="M103.111 234.287C103.19 234.387 102.909 234.731 102.436 234.964C101.963 235.197 101.512 235.219 101.478 235.086C101.445 234.964 101.794 234.753 102.222 234.542C102.65 234.331 103.032 234.176 103.111 234.287Z" fill="#EFF4FC"/>
<path d="M109.105 240.594C109.15 240.716 108.598 241.016 107.832 241.116C107.077 241.227 106.457 241.083 106.468 240.949C106.468 240.816 107.065 240.75 107.775 240.65C108.485 240.55 109.071 240.472 109.116 240.594H109.105Z" fill="#EFF4FC"/>
<path d="M107.911 234.929C107.967 235.04 107.415 235.429 106.638 235.673C105.849 235.917 105.173 235.917 105.162 235.795C105.139 235.662 105.748 235.462 106.491 235.229C107.235 234.996 107.854 234.807 107.911 234.929Z" fill="#EFF4FC"/>
<path d="M110.423 249.375C110.423 249.497 109.476 249.586 108.339 249.375C107.201 249.175 106.344 248.776 106.39 248.654C106.435 248.531 107.325 248.72 108.417 248.909C109.51 249.109 110.423 249.231 110.411 249.364L110.423 249.375Z" fill="#EFF4FC"/>
<path d="M108.192 257.599C108.113 257.699 107.415 257.3 106.728 256.613C106.029 255.925 105.624 255.238 105.725 255.16C105.826 255.083 106.39 255.615 107.066 256.28C107.73 256.945 108.271 257.499 108.192 257.599Z" fill="#EFF4FC"/>
<path d="M98.3824 228.234C98.45 228.334 96.4785 229.121 94.1915 231.493C91.9157 233.81 89.5612 237.901 88.9753 242.834C88.6937 245.284 88.9415 247.667 89.2908 249.785C89.6625 251.902 90.1582 253.787 90.6089 255.361C91.0708 256.935 91.4876 258.188 91.7693 259.063C92.0509 259.939 92.2087 260.416 92.1749 260.427C92.1411 260.427 91.9383 259.972 91.6003 259.119C91.2623 258.265 90.7891 257.024 90.2934 255.449C89.7977 253.886 89.257 251.991 88.8627 249.851C88.4796 247.712 88.2205 245.295 88.5021 242.767C89.0992 237.712 91.5552 233.555 93.9436 231.249C95.1378 230.074 96.2531 229.298 97.0643 228.844C97.4586 228.6 97.7966 228.467 98.0219 228.356C98.2472 228.256 98.3599 228.212 98.3711 228.223L98.3824 228.234Z" fill="#EFF4FC"/>
<path d="M104.892 260.737C104.79 260.682 105.962 258.908 107.043 255.693C108.147 252.523 109.06 247.822 108.328 242.712C107.978 240.162 107.235 237.812 106.289 235.794C105.309 233.81 104.047 232.18 102.819 231.039C101.546 229.93 100.296 229.298 99.4171 228.921C98.5385 228.555 98.009 228.478 98.009 228.433C98.009 228.422 98.1442 228.433 98.4033 228.467C98.6511 228.511 99.0229 228.6 99.4847 228.755C100.397 229.076 101.693 229.675 103.033 230.784C104.34 231.936 105.647 233.555 106.672 235.595C107.652 237.646 108.429 240.04 108.778 242.634C109.533 247.833 108.542 252.611 107.336 255.782C107.066 256.591 106.717 257.29 106.458 257.91C106.153 258.52 105.894 259.041 105.658 259.462C105.173 260.283 104.892 260.737 104.858 260.715L104.892 260.737Z" fill="#EFF4FC"/>
<path d="M411.895 418.971C403.503 421.853 392.543 419.281 385.368 414.116C378.181 408.95 373.022 401.556 368.438 394.062C366.478 390.858 364.574 387.522 363.955 383.841C363.335 380.161 364.248 376.015 367.154 373.609C371.671 369.873 378.575 371.769 383.701 374.64C399.741 383.631 410.689 400.857 411.895 418.982" fill="#26AE7D"/>
<path d="M402.883 438.748C397.837 445.3 389.175 448.204 380.84 448.592C372.504 448.969 364.259 446.707 356.475 443.759C353.648 442.694 350.55 441.231 349.582 438.404C348.85 436.265 349.604 433.837 351.057 432.085C352.51 430.345 354.572 429.192 356.689 428.316C364.36 425.101 373.146 424.946 381.223 427.008C389.288 429.07 396.339 433.671 402.895 438.748" fill="#26AE7D"/>
<path d="M412.019 383.575C405.069 383.708 399.808 377.722 396.666 371.625C392.306 363.178 390.831 353.323 392.532 344C393.163 340.508 394.514 336.739 397.691 335.054C400.924 333.347 405.125 334.466 407.828 336.905C410.532 339.333 412.019 342.814 413.1 346.261C416.828 358.145 416.029 371.791 412.03 383.586" fill="#26AE7D"/>
<path d="M434.851 421.41C423.001 401.567 421.03 377.278 428.025 355.318C429.163 351.76 431.303 347.68 435.088 347.436C439.278 347.17 441.914 351.771 443.062 355.75C447.129 369.696 446.261 384.517 445.36 398.995C444.808 407.919 441.688 415.546 434.84 421.41" fill="#26AE7D"/>
<path d="M447.174 429.569C451.466 415.978 462.392 404.571 475.931 399.56C479.074 398.396 483.084 397.731 485.427 400.104C487.725 402.432 487.015 406.312 485.539 409.216C483.151 413.905 479.277 417.674 475.424 421.288C471.91 424.581 468.272 427.873 463.834 429.791C459.395 431.698 451.24 432.186 447.185 429.58" fill="#26AE7D"/>
<path d="M373.709 378.586C373.709 378.586 373.777 378.653 373.912 378.764C374.081 378.897 374.295 379.052 374.554 379.251C375.162 379.695 375.985 380.304 377.032 381.08C377.573 381.479 378.181 381.912 378.835 382.388C379.477 382.876 380.152 383.453 380.896 384.04C382.36 385.248 384.095 386.546 385.841 388.175C386.731 388.973 387.666 389.805 388.634 390.669C389.603 391.545 390.527 392.532 391.541 393.507C393.579 395.436 395.551 397.686 397.679 400.014C401.791 404.781 406.015 410.28 409.901 416.41C413.731 422.573 416.84 428.748 419.34 434.501C420.501 437.417 421.672 440.155 422.517 442.815C422.956 444.135 423.44 445.398 423.801 446.64C424.161 447.881 424.499 449.079 424.826 450.221C425.536 452.482 425.93 454.588 426.38 456.428C426.583 457.349 426.808 458.202 426.966 458.989C427.101 459.776 427.236 460.508 427.349 461.162C427.586 462.437 427.766 463.434 427.901 464.166C427.969 464.488 428.014 464.743 428.059 464.942C428.093 465.119 428.126 465.208 428.126 465.208C428.126 465.208 428.126 465.119 428.115 464.942C428.093 464.731 428.059 464.476 428.014 464.155C427.901 463.423 427.755 462.415 427.563 461.129C427.462 460.464 427.349 459.743 427.225 458.945C427.079 458.147 426.876 457.293 426.685 456.373C426.268 454.533 425.896 452.415 425.209 450.132C424.894 448.99 424.567 447.782 424.218 446.529C423.868 445.276 423.395 444.013 422.967 442.682C422.145 440.011 420.985 437.251 419.836 434.313C417.358 428.526 414.249 422.318 410.397 416.133C406.488 409.98 402.241 404.471 398.096 399.693C395.956 397.365 393.962 395.115 391.901 393.197C390.887 392.221 389.941 391.246 388.961 390.37C387.981 389.505 387.035 388.685 386.134 387.887C384.365 386.268 382.608 384.982 381.121 383.796C380.367 383.209 379.679 382.654 379.026 382.178C378.361 381.712 377.742 381.291 377.19 380.903C376.109 380.16 375.264 379.584 374.644 379.163C374.374 378.985 374.149 378.841 373.968 378.719C373.811 378.619 373.732 378.575 373.732 378.586H373.709Z" fill="#1B2735"/>
<path d="M358.018 433.604C358.018 433.604 358.3 433.57 358.829 433.471C359.359 433.382 360.125 433.171 361.139 433.005C363.144 432.617 366.072 432.185 369.722 431.974C376.976 431.52 387.271 432.362 397.578 436.586C407.896 440.809 415.758 447.405 420.546 452.793C422.956 455.487 424.713 457.837 425.851 459.511C426.448 460.331 426.842 461.008 427.146 461.451C427.439 461.894 427.608 462.127 427.619 462.116C427.631 462.116 427.507 461.861 427.236 461.396C426.966 460.941 426.594 460.243 426.031 459.4C424.95 457.682 423.238 455.287 420.85 452.549C416.119 447.073 408.211 440.355 397.803 436.098C387.395 431.83 376.987 431.043 369.699 431.608C366.039 431.874 363.099 432.362 361.105 432.817C360.102 433.016 359.336 433.249 358.818 433.382C358.3 433.526 358.03 433.604 358.03 433.626L358.018 433.604Z" fill="#1B2735"/>
<path d="M401.78 342.969C401.78 342.969 401.78 343.08 401.825 343.279C401.87 343.512 401.937 343.8 402.016 344.166C402.208 344.986 402.467 346.128 402.793 347.581C403.48 350.551 404.517 354.83 405.823 360.107C408.437 370.672 412.233 385.216 416.175 401.345C418.135 409.415 419.915 417.12 421.447 424.137C422.945 431.165 424.229 437.517 425.186 442.871C425.693 445.543 426.088 447.971 426.448 450.099C426.82 452.227 427.113 454.068 427.327 455.564C427.563 457.039 427.743 458.191 427.879 459.023C427.946 459.389 427.991 459.688 428.036 459.921C428.07 460.12 428.104 460.22 428.104 460.22C428.104 460.22 428.104 460.109 428.093 459.91C428.07 459.677 428.036 459.378 427.991 459.001C427.89 458.169 427.732 457.005 427.552 455.531C427.36 454.023 427.101 452.183 426.763 450.044C426.425 447.904 426.065 445.476 425.581 442.794C424.68 437.428 423.429 431.065 421.954 424.026C420.444 416.987 418.687 409.271 416.716 401.201C412.762 385.072 408.91 370.539 406.195 359.996C404.855 354.753 403.762 350.496 402.996 347.514C402.624 346.073 402.332 344.931 402.117 344.122C402.016 343.756 401.937 343.468 401.87 343.246C401.813 343.047 401.78 342.947 401.768 342.947L401.78 342.969Z" fill="#1B2735"/>
<path d="M428.982 458.635C428.982 458.635 429.016 458.557 429.061 458.391C429.106 458.202 429.163 457.958 429.23 457.67C429.377 456.994 429.568 456.074 429.816 454.91C430.323 452.504 430.988 449.024 431.743 444.7C433.264 436.065 435.066 424.07 436.17 410.734C436.711 404.061 437.004 397.698 437.139 391.9C437.24 386.102 437.184 380.881 437.004 376.502C436.947 374.307 436.801 372.334 436.711 370.594C436.621 368.853 436.497 367.357 436.384 366.137C436.272 364.951 436.181 364.02 436.125 363.322C436.091 363.033 436.069 362.79 436.046 362.59C436.024 362.424 436.012 362.346 436.001 362.346C436.001 362.346 435.99 362.435 436.001 362.601C436.001 362.801 436.012 363.045 436.024 363.333C436.057 364.02 436.114 364.962 436.181 366.149C436.26 367.368 436.35 368.864 436.418 370.605C436.486 372.345 436.609 374.319 436.632 376.513C436.767 380.892 436.778 386.102 436.655 391.889C436.497 397.676 436.181 404.028 435.641 410.69C434.537 424.004 432.802 435.987 431.382 444.634C430.672 448.957 430.064 452.449 429.636 454.866C429.433 456.041 429.275 456.961 429.151 457.648C429.106 457.936 429.073 458.18 429.039 458.369C429.016 458.535 429.005 458.613 429.016 458.624L428.982 458.635Z" fill="#1B2735"/>
<path d="M428.115 461.162C428.115 461.162 428.239 460.929 428.419 460.475C428.622 459.965 428.881 459.3 429.196 458.479C429.365 458.036 429.546 457.559 429.748 457.038C429.985 456.517 430.233 455.963 430.514 455.364C430.785 454.754 431.078 454.112 431.382 453.435C431.686 452.748 432.08 452.061 432.463 451.318C432.846 450.575 433.251 449.81 433.668 449.001C434.13 448.214 434.614 447.405 435.11 446.562C436.056 444.855 437.295 443.148 438.478 441.297C441.024 437.694 444.009 433.869 447.399 430.067C450.835 426.298 454.338 422.928 457.638 419.979C459.339 418.56 460.905 417.153 462.482 415.966C463.259 415.357 464.002 414.769 464.723 414.204C465.467 413.672 466.176 413.151 466.852 412.663C468.193 411.654 469.466 410.823 470.569 410.091C471.673 409.337 472.631 408.716 473.442 408.24C474.196 407.763 474.816 407.386 475.278 407.098C475.695 406.832 475.909 406.677 475.897 406.666C475.897 406.643 475.65 406.765 475.222 406.998C474.737 407.264 474.106 407.619 473.329 408.051C472.496 408.506 471.516 409.104 470.4 409.836C469.263 410.546 467.979 411.366 466.616 412.353C465.929 412.84 465.208 413.35 464.453 413.871C463.721 414.425 462.966 415.013 462.178 415.612C460.578 416.787 459.001 418.195 457.289 419.602C453.955 422.54 450.418 425.921 446.971 429.701C443.558 433.515 440.573 437.372 438.039 441.008C436.856 442.882 435.639 444.6 434.693 446.33C434.198 447.183 433.725 448.003 433.274 448.802C432.868 449.611 432.463 450.398 432.091 451.141C431.731 451.894 431.337 452.593 431.044 453.28C430.751 453.967 430.469 454.621 430.21 455.231C429.951 455.841 429.715 456.406 429.489 456.927C429.309 457.459 429.129 457.947 428.971 458.391C428.689 459.233 428.464 459.909 428.284 460.43C428.138 460.896 428.059 461.14 428.081 461.151L428.115 461.162Z" fill="#1B2735"/>
<path d="M378.102 401.6C378.102 401.689 379.544 401.689 381.842 401.81C384.151 401.932 387.328 402.232 390.786 402.875C394.244 403.529 397.319 404.393 399.504 405.114C401.701 405.824 403.03 406.345 403.064 406.267C403.075 406.234 402.76 406.067 402.174 405.79C401.588 405.513 400.721 405.158 399.628 404.748C397.454 403.928 394.379 402.997 390.876 402.343C387.384 401.689 384.162 401.456 381.842 401.434C380.682 401.422 379.736 401.434 379.094 401.489C378.44 401.533 378.091 401.578 378.091 401.611L378.102 401.6Z" fill="#263238"/>
<path d="M369.159 444.567C369.328 444.656 370.668 440.854 374.036 437.328C377.359 433.759 381.111 432.162 381.009 432.007C380.987 431.952 380.029 432.262 378.599 433.06C377.179 433.847 375.321 435.156 373.62 436.963C371.919 438.77 370.725 440.687 370.037 442.14C369.339 443.592 369.091 444.556 369.159 444.578V444.567Z" fill="#1B2735"/>
<path d="M399.639 359.087C399.527 359.209 401.712 361.338 404.089 364.22C406.478 367.091 408.168 369.63 408.303 369.541C408.427 369.475 406.94 366.781 404.518 363.876C402.107 360.961 399.729 358.988 399.639 359.098V359.087Z" fill="#263238"/>
<path d="M406.803 346.915C406.645 346.893 406.172 348.955 405.722 351.516C405.283 354.088 405.046 356.183 405.193 356.216C405.339 356.238 405.823 354.176 406.274 351.616C406.713 349.044 406.949 346.948 406.803 346.915Z" fill="#263238"/>
<path d="M428.971 385.105C428.836 385.172 430.391 388.386 432.441 392.289C434.491 396.191 436.271 399.295 436.407 399.217C436.542 399.151 434.987 395.936 432.937 392.034C430.886 388.131 429.106 385.039 428.971 385.105Z" fill="#263238"/>
<path d="M442.162 372.134C442.027 372.068 440.709 374.396 439.222 377.333C437.735 380.271 436.642 382.71 436.777 382.777C436.912 382.843 438.23 380.515 439.718 377.577C441.205 374.64 442.297 372.201 442.162 372.134Z" fill="#263238"/>
<path d="M461.558 416.465C461.592 416.62 463.946 416.177 466.886 415.978C469.815 415.767 472.215 415.889 472.226 415.723C472.248 415.578 469.838 415.213 466.841 415.423C463.856 415.623 461.524 416.321 461.558 416.465Z" fill="#263238"/>
<path d="M448.312 455.664L441.711 489.808C441.271 492.069 439.266 493.699 436.935 493.699H417.448C415.071 493.699 413.044 492.003 412.649 489.697L406.916 455.664H448.312Z" fill="#535E6B"/>
<path d="M446.171 466.761H408.898L406.916 455.664H448.312L446.171 466.761Z" fill="#1B2735"/>
<path d="M446.172 466.761L445.383 470.807H409.473L408.899 466.761H446.172Z" fill="#FAFAFA"/>
<path d="M117.092 95.2047C134.716 77.8557 134.716 49.7273 117.092 32.3783C99.4675 15.0292 70.8929 15.0292 53.2687 32.3783C35.6444 49.7273 35.6444 77.8557 53.2687 95.2047C70.8929 112.554 99.4675 112.554 117.092 95.2047Z" fill="#5C86D7"/>
<path d="M120.57 86.6714C133.533 67.3408 128.121 41.3248 108.482 28.5629C88.8426 15.8011 62.4133 21.126 49.4502 40.4565C36.487 59.787 41.899 85.8031 61.5381 98.5649C81.1772 111.327 107.607 106.002 120.57 86.6714Z" fill="#FAFAFA"/>
<path d="M42.4996 60.8095C42.4996 60.8095 42.5108 61.0423 42.5221 61.4858C42.5221 61.9513 42.5221 62.6165 42.5221 63.4811C42.5221 63.9246 42.5221 64.4123 42.5221 64.9444C42.5446 65.4876 42.6235 66.0751 42.6798 66.707L42.8713 68.7689C42.9163 69.5116 43.1416 70.2655 43.2768 71.0858C43.8062 74.3671 45.0903 78.2803 47.2418 82.4927C49.4157 86.6831 52.6598 91.1172 57.2218 95.0083C57.7962 95.4849 58.3707 95.9727 58.9564 96.4715C59.576 96.926 60.218 97.3473 60.8713 97.8018C61.5246 98.223 62.1442 98.733 62.8538 99.1099C63.5522 99.4979 64.2618 99.8859 64.9827 100.285L66.0641 100.872L67.213 101.371C67.979 101.704 68.7562 102.036 69.5334 102.38C70.3219 102.69 71.1555 102.923 71.9777 103.2C72.8113 103.444 73.6223 103.788 74.5009 103.932C76.2356 104.287 77.9702 104.752 79.8063 104.885C80.7187 104.974 81.6311 105.118 82.5547 105.163C83.4784 105.174 84.4133 105.185 85.3595 105.196C85.8326 105.196 86.3057 105.229 86.7788 105.196L88.1981 105.074C89.1442 104.985 90.113 104.93 91.0704 104.808C92.974 104.431 94.9227 104.176 96.8151 103.544C98.7525 103.067 100.6 102.258 102.481 101.515C103.405 101.094 104.294 100.595 105.218 100.141C105.669 99.8969 106.142 99.6974 106.581 99.4092L107.888 98.5778C109.679 97.5247 111.278 96.1722 112.945 94.8752C114.466 93.423 116.065 92.0041 117.406 90.3191L118.465 89.0997L119.411 87.7916L120.357 86.4724C120.684 86.0401 120.988 85.5856 121.236 85.1089C121.776 84.1666 122.317 83.2244 122.869 82.271C123.32 81.2733 123.77 80.2756 124.221 79.2669C125.876 75.1874 126.913 70.7976 127.273 66.2969C127.51 61.7851 127.07 57.3065 125.967 53.0386C125.651 51.9855 125.336 50.9324 125.032 49.8903C124.615 48.8816 124.209 47.8728 123.793 46.864C123.601 46.3541 123.365 45.8663 123.106 45.4007L122.351 43.9707L121.596 42.5517L120.706 41.2104C119.602 39.3702 118.206 37.7628 116.888 36.1222C115.412 34.6256 114.004 33.0737 112.36 31.7988L111.177 30.8011C110.783 30.4686 110.343 30.2025 109.927 29.9032C109.082 29.3268 108.259 28.7171 107.403 28.185C105.624 27.1984 103.911 26.1674 102.053 25.4468C100.262 24.5711 98.3583 24.0722 96.5222 23.4515C95.5873 23.1965 94.6411 23.0302 93.7062 22.8085L92.3095 22.5092C91.8476 22.4205 91.3745 22.3873 90.9014 22.3318C89.9665 22.221 89.0316 22.1101 88.1192 22.0103C87.1955 21.9327 86.2719 21.966 85.3595 21.9327C83.5234 21.8219 81.7324 22.0658 79.9753 22.1988C79.0854 22.2321 78.2406 22.4649 77.3732 22.609C76.5172 22.7752 75.6611 22.8972 74.8388 23.1078C74.0165 23.3406 73.2055 23.5734 72.4058 23.8062C72.0003 23.917 71.606 24.039 71.2005 24.1498C70.8175 24.305 70.4346 24.4492 70.0516 24.5933C69.2856 24.8926 68.5309 25.1919 67.7875 25.4912C67.0328 25.7683 66.3569 26.1896 65.6473 26.5332C64.9489 26.899 64.2506 27.2316 63.5747 27.6085C62.9327 28.0187 62.2906 28.4288 61.6598 28.8279C56.6248 32.0871 52.8175 36.0778 50.1028 39.9467C47.4107 43.8377 45.6197 47.5513 44.651 50.7439C44.4032 51.5421 44.0765 52.2626 43.9414 52.9832C43.7724 53.7037 43.626 54.3689 43.4795 55.0007C43.3444 55.6215 43.1867 56.198 43.0966 56.7301C43.029 57.2622 42.9614 57.7499 42.9051 58.1823C42.7924 59.0359 42.7023 59.6899 42.646 60.1555C42.5784 60.5989 42.5334 60.8317 42.5334 60.8317C42.5334 60.8317 42.5334 60.5989 42.5784 60.1555C42.6235 59.6899 42.6911 59.0248 42.7812 58.1712C42.8262 57.7278 42.8825 57.24 42.9389 56.7079C43.0177 56.1758 43.1641 55.5994 43.2993 54.9675C43.4345 54.3356 43.5809 53.6594 43.7386 52.9388C43.8625 52.2072 44.1892 51.4756 44.4257 50.6774C45.3606 47.4626 47.1291 43.7046 49.8212 39.7693C52.5246 35.845 56.3432 31.8099 61.4233 28.4954C62.0653 28.0852 62.7074 27.675 63.3607 27.2538C64.0365 26.8769 64.7462 26.5332 65.4446 26.1674C66.1542 25.8238 66.8413 25.3914 67.6073 25.1032C68.362 24.8039 69.1279 24.4935 69.8939 24.1942L71.0541 23.7397C71.4596 23.6177 71.8651 23.5069 72.2706 23.3849C73.0816 23.1522 73.9039 22.9083 74.7374 22.6755C75.571 22.4649 76.4383 22.3429 77.2944 22.1655C78.1617 22.0325 79.0178 21.7886 79.9189 21.7443C81.6987 21.6113 83.5122 21.3563 85.3708 21.4672C86.2944 21.4893 87.2293 21.4672 88.1643 21.5337C89.0992 21.6445 90.0341 21.7443 90.9916 21.8551C91.4646 21.9217 91.949 21.9438 92.4108 22.0325L93.8188 22.3318C94.765 22.5424 95.7225 22.7198 96.6687 22.9748C98.5272 23.5956 100.453 24.0944 102.267 24.9813C104.148 25.7129 105.894 26.7549 107.696 27.7526C108.564 28.2958 109.397 28.9055 110.264 29.493C110.681 29.7924 111.132 30.0584 111.537 30.4021L112.743 31.4108C114.41 32.6968 115.829 34.2598 117.327 35.7785C118.667 37.4413 120.075 39.0709 121.202 40.9333L122.103 42.2968L122.869 43.7379L123.635 45.1901C123.905 45.6668 124.142 46.1656 124.333 46.6755L125.595 49.7462C125.91 50.8104 126.226 51.8746 126.552 52.9388C127.667 57.2622 128.118 61.8072 127.87 66.3745C127.51 70.9417 126.451 75.3869 124.773 79.5218C124.311 80.5417 123.86 81.5505 123.398 82.5703C122.846 83.5348 122.295 84.4881 121.743 85.4526C121.483 85.9403 121.179 86.3948 120.853 86.8382L119.895 88.1796L118.938 89.5098L117.868 90.7403C116.505 92.4364 114.894 93.8775 113.34 95.3519C111.65 96.66 110.028 98.0346 108.214 99.0988L106.896 99.9413C106.457 100.23 105.973 100.429 105.522 100.673C104.587 101.139 103.686 101.637 102.751 102.059C100.836 102.812 98.9665 103.622 97.0066 104.098C95.0917 104.741 93.1092 104.985 91.183 105.362C90.2143 105.495 89.2343 105.539 88.2769 105.628L86.8351 105.75C86.3507 105.783 85.8776 105.75 85.4045 105.75L82.566 105.706C81.6311 105.661 80.7074 105.506 79.7838 105.418C77.9364 105.285 76.168 104.808 74.422 104.442C73.5322 104.287 72.7212 103.943 71.8764 103.688C71.0428 103.4 70.198 103.178 69.4095 102.857C68.621 102.513 67.8438 102.169 67.0666 101.826C66.6836 101.66 66.2894 101.493 65.9064 101.316L64.8138 100.717C64.0929 100.318 63.372 99.9191 62.6736 99.5201C61.9527 99.1431 61.3332 98.6221 60.6686 98.1898C60.0265 97.7353 59.3619 97.3029 58.7424 96.8374C58.1567 96.3385 57.5709 95.8397 56.9965 95.3519C52.412 91.4055 49.1566 86.9158 46.9939 82.6812C44.8538 78.4355 43.5922 74.4779 43.0966 71.1745C42.9614 70.3541 42.7474 69.5892 42.7136 68.8465C42.6573 68.1149 42.6009 67.4165 42.5446 66.7735C42.4996 66.1306 42.432 65.543 42.4207 64.9999C42.432 64.4567 42.4432 63.9689 42.4545 63.5255C42.477 62.6608 42.4996 61.9957 42.5108 61.5301C42.5221 61.0756 42.5559 60.8539 42.5559 60.8539L42.4996 60.8095Z" fill="#263238"/>
<path d="M84.9201 28.5181C85.0778 28.5181 85.1904 30.0922 85.1904 32.0433C85.1904 33.9944 85.0665 35.5686 84.9201 35.5686C84.7737 35.5686 84.6498 33.9944 84.6498 32.0433C84.6498 30.0922 84.7737 28.5181 84.9201 28.5181Z" fill="#535E6B"/>
<path d="M104.329 34.1713C104.442 34.2822 103.405 35.4573 102.031 36.8208C100.656 38.1733 99.4509 39.1932 99.3382 39.0823C99.2256 38.9715 100.262 37.7964 101.637 36.4328C103.011 35.0804 104.216 34.0605 104.329 34.1713Z" fill="#535E6B"/>
<path d="M115.683 46.3771C115.751 46.5101 114.399 47.3193 112.743 48.306C111.087 49.2926 109.746 50.1019 109.645 49.9799C109.555 49.858 110.771 48.8381 112.45 47.8404C114.129 46.8316 115.605 46.244 115.672 46.3771H115.683Z" fill="#535E6B"/>
<path d="M122.341 64.4909C122.341 64.6466 120.156 64.7578 117.463 64.7578C114.77 64.7578 112.585 64.6355 112.585 64.4909C112.585 64.3464 114.77 64.2241 117.463 64.2241C120.156 64.2241 122.341 64.3464 122.341 64.4909Z" fill="#535E6B"/>
<path d="M54.655 63.8484C54.655 64.004 52.5934 64.1152 50.0473 64.1152C47.5012 64.1152 45.4395 63.9929 45.4395 63.8484C45.4395 63.7038 47.5012 63.5815 50.0473 63.5815C52.5934 63.5815 54.655 63.7038 54.655 63.8484Z" fill="#535E6B"/>
<path d="M59.442 77.3381C59.5434 77.4489 57.9774 78.8457 55.9608 80.4532C53.9329 82.0606 52.2205 83.2579 52.1303 83.1359C52.0402 83.014 53.5949 81.6282 55.6115 80.0208C57.6281 78.4245 59.3406 77.2161 59.442 77.3381Z" fill="#535E6B"/>
<path d="M71.2464 87.759C71.3703 87.8477 70.2212 89.5993 68.8805 91.8053C67.5286 94.0003 66.5034 95.8294 66.3682 95.7629C66.233 95.6964 67.0441 93.7453 68.4073 91.5282C69.7592 89.2999 71.1337 87.6814 71.2464 87.759Z" fill="#535E6B"/>
<path d="M84.9201 101.217C84.7624 101.217 84.6498 99.0663 84.6498 96.4168C84.6498 93.7673 84.7737 91.6167 84.9201 91.6167C85.0665 91.6167 85.1904 93.7673 85.1904 96.4168C85.1904 99.0663 85.0665 101.217 84.9201 101.217Z" fill="#535E6B"/>
<path d="M105.963 94.8089C105.884 94.9309 103.98 93.8445 101.941 92.0929C99.9017 90.3414 98.5497 88.6342 98.6624 88.5344C98.7863 88.4346 100.296 89.9645 102.301 91.6828C104.307 93.4121 106.053 94.6759 105.963 94.8089Z" fill="#535E6B"/>
<path d="M115.83 84.3443C115.717 84.4552 114.275 83.2025 112.597 81.5507C110.918 79.899 109.645 78.48 109.758 78.3691C109.87 78.2583 111.312 79.511 112.991 81.1627C114.67 82.8145 115.943 84.2335 115.83 84.3443Z" fill="#535E6B"/>
<path d="M58.9911 50.9326C58.8784 51.0435 57.6054 49.9571 56.1408 48.5049C54.6762 47.0637 53.5722 45.7999 53.6735 45.7002C53.7862 45.5893 55.0593 46.6757 56.5238 48.1279C57.9884 49.5802 59.0925 50.8329 58.9911 50.9326Z" fill="#535E6B"/>
<path d="M71.1788 38.2947C71.0662 38.4056 69.8156 37.3414 68.3736 35.9335C66.9316 34.5256 65.85 33.2951 65.9627 33.1842C66.0753 33.0733 67.3259 34.1376 68.7679 35.5455C70.2099 36.9534 71.2915 38.1839 71.1788 38.2947Z" fill="#535E6B"/>
<path d="M85.0224 41.4883C85.0224 41.4883 85.1013 42.0204 85.1351 42.9849C85.1576 44.0602 85.1914 45.4348 85.2252 47.0755C85.2815 50.5342 85.3153 55.3122 85.3153 60.589C85.3153 61.6089 85.3153 62.6066 85.3153 63.56V64.0256L84.8985 63.815C80.7531 61.7419 77.1033 59.9017 74.5011 58.5603C73.2845 57.9173 72.2594 57.3852 71.4484 56.9529C70.7387 56.5649 70.3557 56.3432 70.3782 56.3099C70.3895 56.2767 70.8063 56.4429 71.5498 56.7755C72.3833 57.1635 73.431 57.6513 74.6814 58.2277C77.3286 59.4804 81.0009 61.2652 85.1688 63.3161L84.7521 63.5711C84.7521 62.6177 84.7521 61.62 84.7521 60.6001C84.7521 55.3233 84.7858 50.5453 84.8422 47.0866C84.876 45.4459 84.9098 44.0713 84.9323 42.9959C84.9661 42.0315 85.0111 41.4994 85.0449 41.4994L85.0224 41.4883Z" fill="#535E6B"/>
<path d="M146.062 244.385L166.686 289.281C167.542 291.144 170.133 292.651 172.206 292.673L267.365 292.551C267.128 290.589 265.45 289.093 263.445 289.048L227.332 288.272L208.848 244.618C208.262 243.221 206.877 242.312 205.345 242.301L147.718 241.869C146.4 241.869 145.51 243.199 146.05 244.385H146.062Z" fill="#E0E0E0"/>
<path d="M146.062 244.385C146.062 244.385 145.949 244.23 145.893 243.864C145.836 243.509 145.893 242.9 146.4 242.356C146.647 242.09 147.042 241.88 147.504 241.824C147.965 241.791 148.438 241.824 148.979 241.813C150.038 241.813 151.266 241.813 152.651 241.813C158.204 241.835 166.27 241.869 176.373 241.913C181.431 241.935 187.007 241.968 193.033 242.002C196.041 242.024 199.172 242.035 202.405 242.057C203.216 242.057 204.027 242.057 204.849 242.068C205.649 242.035 206.606 242.146 207.361 242.6C208.127 243.033 208.758 243.731 209.096 244.54C209.422 245.305 209.749 246.081 210.087 246.868C215.381 259.35 221.283 273.263 227.614 288.173L227.355 288.006C233.651 288.139 240.173 288.284 246.875 288.417C250.221 288.483 253.611 288.561 257.036 288.638C258.748 288.672 260.471 288.716 262.195 288.749L263.49 288.782C263.952 288.794 264.414 288.882 264.853 289.048C265.732 289.37 266.498 289.969 267.004 290.745C267.365 291.299 267.59 291.942 267.658 292.54L267.703 292.862H267.376C246.335 292.884 226.307 292.895 208.116 292.917C199.014 292.917 190.375 292.917 182.287 292.917C180.271 292.917 178.277 292.917 176.328 292.917H173.434C172.949 292.917 172.487 292.928 171.992 292.906C171.496 292.873 171.012 292.773 170.55 292.629C168.736 292.03 167.069 290.811 166.36 289.082C165.627 287.463 164.895 285.889 164.197 284.348C158.576 272.021 154.025 262.044 150.883 255.138C149.328 251.701 148.123 249.019 147.29 247.19C146.895 246.292 146.58 245.604 146.366 245.117C146.163 244.651 146.073 244.407 146.073 244.407C146.073 244.407 146.197 244.64 146.422 245.095C146.647 245.571 146.974 246.259 147.391 247.145C148.247 248.974 149.486 251.624 151.085 255.049C154.273 261.944 158.88 271.888 164.569 284.182C165.278 285.723 166.01 287.297 166.754 288.904C167.407 290.501 168.973 291.642 170.685 292.208C171.552 292.507 172.454 292.474 173.434 292.463C174.391 292.463 175.36 292.463 176.328 292.463C178.277 292.463 180.271 292.463 182.287 292.452C190.375 292.43 199.014 292.407 208.116 292.385C226.318 292.352 246.335 292.319 267.376 292.285L267.083 292.607C267.016 292.086 266.824 291.532 266.52 291.055C266.081 290.39 265.416 289.869 264.662 289.592C264.29 289.459 263.884 289.37 263.479 289.37L262.183 289.337C260.46 289.303 258.737 289.259 257.024 289.226C253.6 289.148 250.21 289.082 246.864 289.004C240.173 288.86 233.64 288.716 227.344 288.572H227.163L227.096 288.406C220.799 273.484 214.919 259.572 209.636 247.079C209.31 246.303 208.983 245.527 208.656 244.751C208.352 244.03 207.8 243.421 207.124 243.033C206.426 242.634 205.683 242.534 204.849 242.556C204.027 242.556 203.216 242.545 202.405 242.534C199.172 242.501 196.052 242.478 193.033 242.445C187.007 242.39 181.442 242.334 176.373 242.29C166.27 242.179 158.204 242.09 152.651 242.035C151.266 242.013 150.049 242.002 148.979 241.98C148.45 241.98 147.954 241.946 147.526 241.98C147.098 242.024 146.726 242.212 146.478 242.456C145.972 242.955 145.904 243.543 145.949 243.886C145.994 244.241 146.084 244.407 146.073 244.418L146.062 244.385Z" fill="#263238"/>
<path d="M225.575 293.061C225.575 293.061 225.462 292.895 225.293 292.574C225.102 292.186 224.877 291.698 224.606 291.121C223.998 289.769 223.187 287.951 222.196 285.745C220.18 281.189 217.454 274.881 214.514 267.875C211.574 260.869 208.983 254.506 207.181 249.861C206.28 247.544 205.57 245.66 205.108 244.341C204.894 243.731 204.725 243.232 204.59 242.822C204.477 242.478 204.421 242.29 204.444 242.279C204.466 242.279 204.545 242.445 204.703 242.778C204.872 243.177 205.074 243.664 205.333 244.252C205.897 245.616 206.663 247.467 207.575 249.695C209.524 254.362 212.159 260.67 215.066 267.642C217.983 274.604 220.63 280.901 222.59 285.568C223.514 287.807 224.268 289.647 224.832 291.022C225.068 291.62 225.26 292.108 225.417 292.518C225.541 292.862 225.609 293.05 225.586 293.05L225.575 293.061Z" fill="#455A64"/>
<path d="M188.258 266.156C188.258 267.764 186.94 269.061 185.306 269.061C183.673 269.061 182.355 267.764 182.355 266.156C182.355 264.549 183.673 263.252 185.306 263.252C186.94 263.252 188.258 264.549 188.258 266.156Z" fill="white"/>
<path d="M499 492.722C499 492.878 387.283 493.011 249.511 493.011C111.74 493.011 0 492.878 0 492.722C0 492.567 111.684 492.434 249.511 492.434C387.339 492.434 499 492.567 499 492.722Z" fill="#535E6B"/>
</svg>
